<svg width="134" height="45" viewBox="0 0 134 45" fill="none" xmlns="http://www.w3.org/2000/svg">
<g clip-path="url(#clip0)">
<path d="M123.329 -9.78906e-05H10.6769C10.2663 -9.78906e-05 9.86061 -9.78906e-05 9.45107 0.00215211C9.10824 0.00440211 8.76815 0.0109384 8.42203 0.0164396C7.67009 0.0253291 6.91993 0.0917879 6.17806 0.215238C5.43722 0.341376 4.7196 0.579182 4.04945 0.920613C3.38012 1.26493 2.76854 1.71234 2.23688 2.24661C1.70244 2.77937 1.25694 3.39517 0.917509 4.07033C0.577146 4.74415 0.341137 5.46621 0.217633 6.21157C0.0929558 6.95599 0.0258656 7.70899 0.016965 8.46382C0.00657323 8.80874 0.00547583 9.15481 0 9.49978V35.5033C0.00547583 35.8526 0.00657323 36.191 0.016965 36.5405C0.0258683 37.2953 0.0929585 38.0482 0.217633 38.7926C0.340796 39.5384 0.576819 40.2609 0.917509 40.9349C1.25678 41.6079 1.70235 42.2212 2.23688 42.751C2.76652 43.2877 3.3785 43.7354 4.04945 44.0771C4.71959 44.4194 5.43714 44.6586 6.17806 44.7867C6.92006 44.9092 7.67014 44.9757 8.42203 44.9856C8.76815 44.9933 9.10824 44.9977 9.45107 44.9977C9.8606 44.9999 10.2663 44.9999 10.6769 44.9999H123.329C123.732 44.9999 124.14 44.9999 124.543 44.9977C124.884 44.9977 125.234 44.9933 125.575 44.9856C126.326 44.9762 127.074 44.9097 127.815 44.7867C128.558 44.6577 129.278 44.4186 129.952 44.0771C130.622 43.7352 131.233 43.2875 131.763 42.751C132.296 42.2192 132.742 41.6063 133.086 40.9349C133.424 40.2604 133.658 39.538 133.779 38.7926C133.904 38.0481 133.973 37.2953 133.987 36.5405C133.991 36.191 133.991 35.8526 133.991 35.5033C134 35.0946 134 34.6882 134 34.2728V10.728C134 10.3161 134 9.90737 133.991 9.49978C133.991 9.15481 133.991 8.80874 133.987 8.46377C133.973 7.70888 133.904 6.95604 133.779 6.21152C133.657 5.46659 133.424 4.74459 133.086 4.07029C132.395 2.717 131.298 1.61543 129.952 0.920512C129.278 0.579915 128.558 0.342173 127.815 0.215137C127.075 0.0911427 126.326 0.0246608 125.575 0.0162821C125.234 0.0107921 124.884 0.00419961 124.543 0.00200586C124.14 -0.000244141 123.732 -0.000244141 123.329 -0.000244141V-9.78906e-05Z" fill="#0F1721"/>
<path d="M9.45647 44.0156C9.11529 44.0156 8.78235 44.0112 8.44385 44.0036C7.74261 43.9944 7.04301 43.9331 6.35078 43.8201C5.70532 43.7084 5.08004 43.5007 4.49556 43.2037C3.91645 42.9092 3.38825 42.5231 2.9312 42.06C2.46754 41.6025 2.08151 41.0718 1.78843 40.489C1.49212 39.9024 1.28706 39.2736 1.18038 38.6246C1.06518 37.9273 1.00285 37.2221 0.993933 36.5153C0.986833 36.278 0.977539 35.488 0.977539 35.488V9.49988C0.977539 9.49988 0.987438 8.72205 0.993989 8.49353C1.00253 7.78779 1.06449 7.08373 1.17935 6.38745C1.28622 5.73666 1.49145 5.10609 1.78792 4.51758C2.07992 3.93519 2.4638 3.40409 2.92467 2.94489C3.38503 2.48132 3.91491 2.09318 4.49501 1.79461C5.07815 1.49861 5.70224 1.29232 6.3464 1.18268C7.0409 1.06857 7.74293 1.00687 8.4466 0.998111L9.45702 0.984375H124.537L125.56 0.998663C126.257 1.00699 126.953 1.06813 127.641 1.18158C128.292 1.2926 128.922 1.50032 129.512 1.79791C130.674 2.39961 131.62 3.35156 132.216 4.52033C132.508 5.10477 132.71 5.7302 132.816 6.37536C132.932 7.07736 132.997 7.78696 133.01 8.49848C133.014 8.81708 133.014 9.1593 133.014 9.49988C133.022 9.92176 133.022 10.3233 133.022 10.7281V34.2729C133.022 34.6816 133.022 35.0804 133.014 35.4825C133.014 35.8484 133.014 36.1835 133.009 36.5284C132.996 37.2272 132.932 37.9242 132.818 38.6136C132.713 39.2673 132.509 39.901 132.213 40.4923C131.918 41.0688 131.534 41.5949 131.076 42.0513C130.618 42.5168 130.089 42.9052 129.509 43.2016C128.921 43.5008 128.291 43.7093 127.641 43.8201C126.949 43.9337 126.249 43.995 125.548 44.0036C125.22 44.0112 124.876 44.0156 124.543 44.0156L123.329 44.0179L9.45647 44.0156Z" fill="white"/>
<path d="M27.9914 22.3753C28.0039 21.3988 28.2621 20.4414 28.7419 19.5921C29.2217 18.7429 29.9075 18.0293 30.7355 17.5179C30.2095 16.7631 29.5155 16.142 28.7088 15.7038C27.902 15.2656 27.0046 15.0225 26.0879 14.9936C24.1325 14.7874 22.2368 16.1692 21.2403 16.1692C20.2246 16.1692 18.6904 15.0141 17.0383 15.0483C15.9697 15.0829 14.9282 15.3951 14.0154 15.9544C13.1026 16.5137 12.3496 17.301 11.8297 18.2395C9.57763 22.1568 11.2575 27.9139 13.4148 31.0803C14.4941 32.6308 15.7556 34.3628 17.4062 34.3013C19.0214 34.234 19.6246 33.2666 21.5743 33.2666C23.5059 33.2666 24.0718 34.3013 25.7559 34.2623C27.4891 34.234 28.5811 32.7049 29.6226 31.1397C30.3981 30.0349 30.9949 28.8139 31.3908 27.5218C30.3838 27.094 29.5245 26.3778 28.92 25.4626C28.3155 24.5474 27.9925 23.4737 27.9914 22.3753Z" fill="#0F1721"/>
<path d="M24.8106 12.9113C25.7556 11.7716 26.2211 10.3066 26.1084 8.82764C24.6646 8.97998 23.331 9.6732 22.3733 10.7692C21.905 11.3046 21.5463 11.9275 21.3178 12.6022C21.0893 13.277 20.9954 13.9904 21.0414 14.7016C21.7636 14.7091 22.478 14.5518 23.1308 14.2417C23.7837 13.9316 24.358 13.4767 24.8106 12.9113Z" fill="#0F1721"/>
<path d="M47.3697 30.5319H42.0692L40.7963 34.3079H38.5513L43.5718 20.3376H45.9043L50.9249 34.3079H48.6415L47.3697 30.5319ZM42.6182 28.7895H46.8197L44.7485 22.6613H44.6905L42.6182 28.7895Z" fill="#0F1721"/>
<path d="M61.7676 29.2159C61.7676 32.381 60.0813 34.4146 57.5366 34.4146C56.892 34.4485 56.2509 34.2993 55.6868 33.9841C55.1226 33.669 54.6582 33.2006 54.3467 32.6326H54.2986V37.6775H52.2175V24.1226H54.2319V25.8167H54.2701C54.5959 25.2514 55.0682 24.7855 55.6366 24.4684C56.2051 24.1513 56.8485 23.995 57.4983 24.016C60.0715 24.016 61.7676 26.0595 61.7676 29.2159ZM59.6286 29.2159C59.6286 27.1538 58.5678 25.798 56.9494 25.798C55.3593 25.798 54.2898 27.1823 54.2898 29.2159C54.2898 31.2681 55.3593 32.6425 56.9494 32.6425C58.5678 32.6425 59.6285 31.2967 59.6285 29.2159H59.6286Z" fill="#0F1721"/>
<path d="M72.9266 29.2159C72.9266 32.381 71.2398 34.4146 68.6951 34.4146C68.0504 34.4485 67.4094 34.2993 66.8452 33.9841C66.2811 33.669 65.8167 33.2006 65.5052 32.6326H65.457V37.6775H63.376V24.1226H65.3903V25.8167H65.4286C65.7544 25.2514 66.2266 24.7855 66.7951 24.4684C67.3635 24.1513 68.0069 23.995 68.6568 24.016C71.2299 24.016 72.9266 26.0595 72.9266 29.2159ZM70.787 29.2159C70.787 27.1538 69.7263 25.798 68.1078 25.798C66.5178 25.798 65.4483 27.1823 65.4483 29.2159C65.4483 31.2681 66.5178 32.6425 68.1078 32.6425C69.7263 32.6425 70.787 31.2967 70.787 29.2159Z" fill="#0F1721"/>
<path d="M80.3005 30.4155C80.4547 31.8008 81.7943 32.7105 83.6249 32.7105C85.3789 32.7105 86.6409 31.8008 86.6409 30.5516C86.6409 29.4673 85.8798 28.818 84.0776 28.3731L82.2754 27.9369C79.722 27.3173 78.5366 26.1176 78.5366 24.1708C78.5366 21.7604 80.6274 20.1047 83.5954 20.1047C86.5348 20.1047 88.5492 21.7604 88.617 24.1708H86.5162C86.3905 22.7766 85.2433 21.9351 83.5669 21.9351C81.8905 21.9351 80.7433 22.7865 80.7433 24.0258C80.7433 25.0134 81.476 25.5946 83.2684 26.0395L84.8004 26.4174C87.6535 27.0953 88.8379 28.2467 88.8379 30.2901C88.8379 32.9038 86.7666 34.5407 83.4706 34.5407C80.3868 34.5407 78.3047 32.9422 78.1702 30.4154L80.3005 30.4155Z" fill="#0F1721"/>
<path d="M93.3313 21.7122V24.1226H95.2593V25.7782H93.3313V31.3933C93.3313 32.2656 93.7174 32.6721 94.5649 32.6721C94.7937 32.6681 95.0223 32.652 95.2494 32.6237V34.2695C94.8684 34.341 94.4811 34.3734 94.0935 34.3662C92.041 34.3662 91.2405 33.5916 91.2405 31.6163V25.7782H89.7664V24.1226H91.2404V21.7122H93.3313Z" fill="#0F1721"/>
<path d="M96.3748 29.2158C96.3748 26.0111 98.2535 23.9973 101.183 23.9973C104.123 23.9973 105.993 26.0111 105.993 29.2158C105.993 32.4293 104.132 34.4343 101.183 34.4343C98.2349 34.4343 96.3748 32.4293 96.3748 29.2158ZM103.872 29.2158C103.872 27.0175 102.869 25.72 101.183 25.72C99.4968 25.72 98.4941 27.0273 98.4941 29.2158C98.4941 31.423 99.4968 32.7106 101.183 32.7106C102.869 32.7106 103.872 31.423 103.872 29.2158H103.872Z" fill="#0F1721"/>
<path d="M107.708 24.1225H109.693V25.8561H109.741C109.876 25.3147 110.191 24.8362 110.635 24.5011C111.079 24.166 111.625 23.9946 112.18 24.0159C112.42 24.0151 112.659 24.0413 112.893 24.0939V26.0495C112.59 25.9566 112.274 25.9139 111.958 25.9232C111.655 25.9108 111.354 25.9644 111.074 26.0801C110.795 26.1959 110.543 26.3711 110.337 26.5937C110.131 26.8163 109.975 27.0811 109.881 27.3699C109.786 27.6586 109.755 27.9645 109.789 28.2665V34.3079H107.708L107.708 24.1225Z" fill="#0F1721"/>
<path d="M122.488 31.3164C122.208 33.1654 120.415 34.4343 118.122 34.4343C115.173 34.4343 113.342 32.4491 113.342 29.2642C113.342 26.0693 115.183 23.9973 118.035 23.9973C120.84 23.9973 122.604 25.9331 122.604 29.0214V29.7377H115.443V29.864C115.41 30.2389 115.457 30.6165 115.58 30.9718C115.703 31.3271 115.901 31.652 116.159 31.9249C116.417 32.1977 116.729 32.4123 117.076 32.5544C117.423 32.6965 117.796 32.7629 118.17 32.749C118.662 32.7953 119.156 32.6809 119.577 32.4228C119.999 32.1646 120.327 31.7766 120.512 31.3164L122.488 31.3164ZM115.453 28.2765H120.521C120.54 27.9394 120.489 27.6022 120.372 27.2858C120.255 26.9694 120.074 26.6808 119.84 26.4381C119.607 26.1954 119.326 26.0037 119.015 25.8752C118.704 25.7467 118.371 25.6842 118.035 25.6914C117.696 25.6894 117.36 25.7548 117.046 25.8839C116.733 26.013 116.448 26.2032 116.208 26.4435C115.968 26.6838 115.777 26.9695 115.648 27.2842C115.518 27.5988 115.452 27.936 115.453 28.2765V28.2765Z" fill="#0F1721"/>
<path d="M41.1396 12.6601H42.0331C42.1869 12.6793 42.343 12.6663 42.4915 12.622C42.6401 12.5776 42.7779 12.5028 42.8962 12.4022C43.0146 12.3017 43.1109 12.1776 43.1792 12.0378C43.2474 11.898 43.2861 11.7456 43.2928 11.59C43.2928 10.9709 42.8292 10.571 42.0429 10.571C41.8853 10.5489 41.7249 10.5587 41.5712 10.5999C41.4175 10.6411 41.2735 10.7128 41.1478 10.8108C41.0222 10.9088 40.9173 11.0311 40.8394 11.1705C40.7616 11.3099 40.7123 11.4636 40.6945 11.6224H39.7136C39.7305 11.3341 39.8063 11.0523 39.9362 10.7947C40.0662 10.537 40.2476 10.309 40.469 10.1249C40.6905 9.9407 40.9474 9.80431 41.2236 9.72419C41.4998 9.64407 41.7895 9.62193 42.0746 9.65915C43.3901 9.65915 44.3164 10.3991 44.3164 11.4642C44.3195 11.821 44.2007 12.1681 43.9798 12.4475C43.7589 12.727 43.4492 12.9218 43.1026 12.9995V13.0786C43.5135 13.097 43.9006 13.278 44.179 13.5822C44.4575 13.8863 44.6048 14.2889 44.5887 14.7019C44.5583 14.9988 44.4692 15.2865 44.3266 15.5484C44.1841 15.8102 43.9909 16.0408 43.7585 16.2267C43.5261 16.4126 43.2591 16.55 42.9731 16.6308C42.6872 16.7117 42.388 16.7343 42.0932 16.6975C41.7978 16.738 41.4973 16.7183 41.2096 16.6396C40.9219 16.5609 40.653 16.4248 40.4188 16.2394C40.1846 16.0541 39.9899 15.8232 39.8464 15.5607C39.7029 15.2981 39.6135 15.0092 39.5835 14.7112H40.5797C40.6399 15.3534 41.2271 15.7676 42.0932 15.7676C42.9593 15.7676 43.5247 15.3023 43.5247 14.6464C43.5247 13.9812 42.9921 13.5714 42.0615 13.5714H41.1396V12.6601Z" fill="#0F1721"/>
<path d="M45.7205 15.1023C45.7205 14.1904 46.3974 13.6647 47.5959 13.59L48.9618 13.5109V13.0737C48.9618 12.5386 48.6107 12.2365 47.9294 12.2365C47.3739 12.2365 46.9901 12.4414 46.8785 12.7996H45.9151C46.0168 11.9294 46.8326 11.3713 47.9765 11.3713C49.2406 11.3713 49.9536 12.0036 49.9536 13.0737V16.5349H48.9946V15.823H48.9158C48.756 16.0784 48.5316 16.2865 48.2655 16.4263C47.9994 16.566 47.7012 16.6323 47.4013 16.6184C47.1896 16.6405 46.9756 16.6178 46.7732 16.5518C46.5708 16.4857 46.3844 16.3778 46.226 16.235C46.0677 16.0921 45.9409 15.9175 45.8538 15.7224C45.7667 15.5274 45.7213 15.3161 45.7205 15.1023ZM48.9618 14.6694V14.2459L47.7304 14.325C47.036 14.3717 46.721 14.609 46.721 15.0556C46.721 15.5115 47.1147 15.7768 47.656 15.7768C47.8147 15.793 47.9749 15.7769 48.1272 15.7295C48.2795 15.6822 48.4208 15.6045 48.5426 15.5012C48.6644 15.3979 48.7643 15.271 48.8363 15.1281C48.9083 14.9852 48.951 14.8292 48.9618 14.6694Z" fill="#0F1721"/>
<path d="M52.5945 12.3108V16.535H51.5994V11.4692H54.9194V12.3107L52.5945 12.3108Z" fill="#0F1721"/>
<path d="M60.9506 13.9998C60.9506 15.6093 60.1402 16.6184 58.8673 16.6184C58.5549 16.6398 58.2428 16.5711 57.9679 16.4204C57.693 16.2696 57.4667 16.0431 57.3156 15.7675H57.2368V18.2191H56.2417V11.4691H57.1997V12.3063H57.274C57.4278 12.021 57.6571 11.784 57.9365 11.6214C58.216 11.4589 58.5347 11.3771 58.8575 11.3851C60.1402 11.385 60.9506 12.3897 60.9506 13.9998ZM59.927 13.9998C59.927 12.9297 59.4229 12.2832 58.5797 12.2832C57.7421 12.2832 57.2183 12.9434 57.2183 14.0042C57.2183 15.06 57.7421 15.7208 58.5754 15.7208C59.4229 15.7208 59.927 15.0742 59.927 13.9998Z" fill="#0F1721"/>
<path d="M62.276 18.3494V17.4887C62.3837 17.5024 62.4922 17.5086 62.6007 17.5073C62.8127 17.5231 63.0231 17.4597 63.1914 17.3292C63.3597 17.1987 63.4741 17.0104 63.5127 16.8004L63.5871 16.5537L61.762 11.4692H62.8457L64.1099 15.493H64.1886L65.4484 11.4692H66.5037L64.6239 16.7443C64.193 17.977 63.7162 18.3725 62.6883 18.3725C62.6051 18.3725 62.3689 18.3632 62.276 18.3494Z" fill="#0F1721"/>
<path d="M67.2788 15.0973H68.2696C68.3669 15.544 68.7836 15.7768 69.3664 15.7768C70.0291 15.7768 70.4359 15.4835 70.4359 15.0276C70.4359 14.5393 70.0707 14.3063 69.3664 14.3063H68.6119V13.5296H69.3533C69.9547 13.5296 70.2609 13.2973 70.2609 12.8737C70.2609 12.5018 69.9646 12.2179 69.3533 12.2179C68.7967 12.2179 68.3899 12.4552 68.3253 12.8551H67.3663C67.438 12.3956 67.6863 11.9827 68.0579 11.7052C68.4295 11.4277 68.8946 11.3079 69.3533 11.3714C70.5518 11.3714 71.2375 11.9157 71.2375 12.7716C71.2431 13.0099 71.1671 13.2429 71.0222 13.4317C70.8773 13.6205 70.6722 13.7536 70.4414 13.8087V13.8878C70.7162 13.9234 70.9685 14.0591 71.1503 14.2693C71.3321 14.4794 71.4309 14.7492 71.4278 15.0276C71.4278 15.9906 70.612 16.6278 69.3664 16.6278C68.2652 16.6277 67.3707 16.1207 67.2788 15.0973Z" fill="#0F1721"/>
<path d="M72.8608 16.535V11.4692H73.8472V14.9536H73.926L76.2498 11.4692H77.2362V16.535H76.2498V13.0321H76.1754L73.8472 16.5351L72.8608 16.535Z" fill="#0F1721"/>
<path d="M82.67 12.3107H81.0822V16.535H80.0859V12.3107H78.498V11.4692H82.67V12.3107Z" fill="#0F1721"/>
<path d="M88.0307 15.1672C87.8951 15.6302 87.6019 16.0306 87.2024 16.2984C86.8028 16.5663 86.3223 16.6846 85.8447 16.6328C85.5125 16.6416 85.1823 16.5777 84.8772 16.4454C84.572 16.3132 84.2992 16.1159 84.0776 15.8671C83.8559 15.6183 83.6909 15.3241 83.5938 15.0048C83.4967 14.6855 83.47 14.3488 83.5154 14.018C83.4712 13.6863 83.4984 13.3489 83.5952 13.0286C83.6921 12.7083 83.8563 12.4127 84.0767 12.1618C84.2972 11.9108 84.5687 11.7104 84.873 11.574C85.1773 11.4377 85.5072 11.3686 85.8403 11.3714C87.2433 11.3714 88.0908 12.3344 88.0908 13.9252V14.274H84.5302V14.3301C84.5145 14.516 84.5376 14.7032 84.5981 14.8796C84.6587 15.056 84.7553 15.2178 84.8817 15.3545C85.0082 15.4912 85.1618 15.5997 85.3325 15.6732C85.5032 15.7468 85.6874 15.7836 85.8731 15.7813C86.111 15.8099 86.352 15.7668 86.5654 15.6574C86.7788 15.548 86.955 15.3774 87.0717 15.1672L88.0307 15.1672ZM84.5302 13.5346H87.076C87.0886 13.3647 87.0656 13.194 87.0086 13.0335C86.9517 12.873 86.8619 12.7263 86.7451 12.6027C86.6283 12.4791 86.4871 12.3814 86.3306 12.3159C86.174 12.2504 86.0055 12.2185 85.8359 12.2223C85.6638 12.22 85.4929 12.2523 85.3334 12.3174C85.1738 12.3826 85.029 12.4791 84.9072 12.6015C84.7855 12.7238 84.6894 12.8694 84.6247 13.0297C84.5599 13.19 84.5278 13.3617 84.5302 13.5346H84.5302Z" fill="#0F1721"/>
<path d="M92.2498 11.4692H94.5233C95.5096 11.4692 96.0881 11.9713 96.0881 12.7574C96.0897 13.0068 96.0059 13.2492 95.8508 13.444C95.6957 13.6387 95.4788 13.7741 95.2363 13.8274V13.9065C95.5307 13.9252 95.8068 14.0568 96.0075 14.2742C96.2081 14.4915 96.318 14.778 96.3145 15.0744C96.3145 15.9582 95.6529 16.535 94.5462 16.535H92.2498V11.4692ZM93.2362 12.2366V13.5484H94.2225C94.824 13.5484 95.1116 13.316 95.1116 12.8876C95.1116 12.4926 94.8612 12.2366 94.333 12.2366L93.2362 12.2366ZM93.2362 14.2834V15.7676H94.4161C95.0045 15.7676 95.3194 15.5067 95.3194 15.0277C95.3194 14.5207 94.9629 14.2834 94.2914 14.2834L93.2362 14.2834Z" fill="#0F1721"/>
</g>
<defs>
<clipPath id="clip0">
<rect width="134" height="45" fill="white"/>
</clipPath>
</defs>
</svg>
