<svg width="152" height="45" viewBox="0 0 152 45" fill="none" xmlns="http://www.w3.org/2000/svg">
<g clip-path="url(#clip0)">
<path d="M146.37 0.908474C148.96 0.908474 151.099 3.04523 151.099 5.63182V39.37C151.099 41.9566 148.96 44.0934 146.37 44.0934H5.62963C3.04 44.0934 0.900741 41.9566 0.900741 39.37V5.63182C0.900741 3.04523 3.04 0.908474 5.62963 0.908474H146.37ZM146.37 0.00878906H5.62963C2.47704 0.00878906 0 2.59538 0 5.63182V39.37C0 42.5189 2.47704 44.993 5.62963 44.993H146.37C149.523 44.993 152 42.5189 152 39.37V5.63182C152 2.59538 149.523 0.00878906 146.37 0.00878906Z" fill="#0F1721"/>
<path d="M53.3688 11.479C53.3688 12.3787 53.1437 13.1659 52.5807 13.7282C51.9051 14.403 51.117 14.7404 50.1036 14.7404C49.0903 14.7404 48.3022 14.403 47.6266 13.7282C46.9511 13.0535 46.6133 12.2662 46.6133 11.2541C46.6133 10.242 46.9511 9.45473 47.6266 8.77997C48.3022 8.1052 49.0903 7.76782 50.1036 7.76782C50.554 7.76782 51.0044 7.88028 51.4548 8.1052C51.9051 8.33013 52.2429 8.55505 52.4681 8.89243L51.9051 9.45473C51.4548 8.89243 50.8918 8.66751 50.1036 8.66751C49.4281 8.66751 48.7525 8.89243 48.3022 9.45473C47.7392 9.90457 47.514 10.5793 47.514 11.3666C47.514 12.1538 47.7392 12.8286 48.3022 13.2784C48.8651 13.7282 49.4281 14.0656 50.1036 14.0656C50.8918 14.0656 51.4548 13.8407 52.0177 13.2784C52.3555 12.941 52.5807 12.4912 52.5807 11.9289H50.1036V11.0292H53.3688V11.479ZM58.5481 8.66751H55.5081V10.8043H58.3229V11.5915H55.5081V13.7282H58.5481V14.6279H54.6074V7.88028H58.5481V8.66751ZM62.2636 14.6279H61.3629V8.66751H59.4488V7.88028H64.1777V8.66751H62.2636V14.6279ZM67.4429 14.6279V7.88028H68.3436V14.6279H67.4429ZM72.1718 14.6279H71.2711V8.66751H69.357V7.88028H73.9733V8.66751H72.0592V14.6279H72.1718ZM82.8681 13.7282C82.1925 14.403 81.4044 14.7404 80.3911 14.7404C79.3777 14.7404 78.5896 14.403 77.914 13.7282C77.2385 13.0535 76.9007 12.2662 76.9007 11.2541C76.9007 10.242 77.2385 9.45473 77.914 8.77997C78.5896 8.1052 79.3777 7.76782 80.3911 7.76782C81.4044 7.76782 82.1925 8.1052 82.8681 8.77997C83.5436 9.45473 83.8814 10.242 83.8814 11.2541C83.8814 12.2662 83.5436 13.0535 82.8681 13.7282ZM78.5896 13.1659C79.0399 13.6158 79.7155 13.9532 80.3911 13.9532C81.0666 13.9532 81.7422 13.7282 82.1925 13.1659C82.6429 12.7161 82.9807 12.0413 82.9807 11.2541C82.9807 10.4669 82.7555 9.79211 82.1925 9.34227C81.7422 8.89243 81.0666 8.55505 80.3911 8.55505C79.7155 8.55505 79.0399 8.77997 78.5896 9.34227C78.1392 9.79211 77.8014 10.4669 77.8014 11.2541C77.8014 12.0413 78.0266 12.7161 78.5896 13.1659ZM85.1199 14.6279V7.88028H86.1333L89.3985 13.1659V7.88028H90.2992V14.6279H89.3985L85.9081 9.11735V14.6279H85.1199Z" fill="#0F1721" stroke="#0F1721" stroke-width="0.225185" stroke-miterlimit="10"/>
<path d="M76.6756 24.5244C73.9734 24.5244 71.8342 26.5487 71.8342 29.3602C71.8342 32.0593 73.9734 34.196 76.6756 34.196C79.3779 34.196 81.5171 32.1717 81.5171 29.3602C81.5171 26.4363 79.3779 24.5244 76.6756 24.5244ZM76.6756 32.1717C75.2119 32.1717 73.9734 30.9347 73.9734 29.2478C73.9734 27.5609 75.2119 26.3238 76.6756 26.3238C78.1393 26.3238 79.3779 27.4484 79.3779 29.2478C79.3779 30.9347 78.1393 32.1717 76.6756 32.1717ZM66.2045 24.5244C63.5023 24.5244 61.363 26.5487 61.363 29.3602C61.363 32.0593 63.5023 34.196 66.2045 34.196C68.9067 34.196 71.046 32.1717 71.046 29.3602C71.046 26.4363 68.9067 24.5244 66.2045 24.5244ZM66.2045 32.1717C64.7408 32.1717 63.5023 30.9347 63.5023 29.2478C63.5023 27.5609 64.7408 26.3238 66.2045 26.3238C67.6682 26.3238 68.9067 27.4484 68.9067 29.2478C68.9067 30.9347 67.6682 32.1717 66.2045 32.1717ZM53.7067 25.9864V28.0107H58.5482C58.4356 29.1353 57.9853 30.035 57.4223 30.5973C56.7467 31.2721 55.6208 32.0593 53.7067 32.0593C50.6667 32.0593 48.4149 29.6976 48.4149 26.6612C48.4149 23.6247 50.7793 21.2631 53.7067 21.2631C55.283 21.2631 56.5216 21.9378 57.4223 22.725L58.886 21.2631C57.6475 20.1385 56.0712 19.2388 53.8193 19.2388C49.766 19.2388 46.2756 22.6126 46.2756 26.6612C46.2756 30.7098 49.766 34.0836 53.8193 34.0836C56.0712 34.0836 57.6475 33.4088 58.9986 31.9468C60.3497 30.5973 60.8001 28.6855 60.8001 27.2235C60.8001 26.7736 60.8001 26.3238 60.6875 25.9864H53.7067ZM104.824 27.5609C104.373 26.4363 103.247 24.5244 100.77 24.5244C98.2934 24.5244 96.2667 26.4363 96.2667 29.3602C96.2667 32.0593 98.2934 34.196 100.996 34.196C103.135 34.196 104.486 32.8465 104.936 32.0593L103.36 30.9347C102.797 31.7219 102.122 32.2842 100.996 32.2842C99.8697 32.2842 99.1942 31.8344 98.6312 30.8222L105.049 28.1232L104.824 27.5609ZM98.2934 29.1353C98.2934 27.3359 99.7571 26.3238 100.77 26.3238C101.559 26.3238 102.347 26.7736 102.572 27.3359L98.2934 29.1353ZM93.0016 33.7462H95.1408V19.6886H93.0016V33.7462ZM89.6238 25.5366C89.0608 24.9743 88.1601 24.412 87.0342 24.412C84.6697 24.412 82.4179 26.5487 82.4179 29.2478C82.4179 31.9468 84.5571 33.9711 87.0342 33.9711C88.1601 33.9711 89.0608 33.4088 89.5112 32.8465H89.6238V33.5213C89.6238 35.3206 88.6105 36.3328 87.0342 36.3328C85.7956 36.3328 84.8949 35.4331 84.6697 34.6459L82.8682 35.4331C83.4312 36.6702 84.7823 38.2446 87.1467 38.2446C89.6238 38.2446 91.6505 36.7826 91.6505 33.2964V24.7493H89.6238V25.5366ZM87.1467 32.1717C85.683 32.1717 84.4445 30.9347 84.4445 29.2478C84.4445 27.5609 85.683 26.3238 87.1467 26.3238C88.6105 26.3238 89.7364 27.5609 89.7364 29.2478C89.7364 30.9347 88.6105 32.1717 87.1467 32.1717ZM114.619 19.6886H109.553V33.7462H111.692V28.4605H114.619C116.984 28.4605 119.236 26.7736 119.236 24.0746C119.236 21.3755 116.984 19.6886 114.619 19.6886ZM114.732 26.4363H111.692V21.6004H114.732C116.308 21.6004 117.209 22.95 117.209 23.9621C117.096 25.1992 116.196 26.4363 114.732 26.4363ZM127.68 24.412C126.104 24.412 124.527 25.0867 123.965 26.5487L125.879 27.3359C126.329 26.5487 127.005 26.3238 127.793 26.3238C128.919 26.3238 129.932 26.9986 130.045 28.1232V28.2356C129.707 28.0107 128.806 27.6733 127.905 27.6733C125.879 27.6733 123.852 28.7979 123.852 30.8222C123.852 32.734 125.541 33.9711 127.342 33.9711C128.806 33.9711 129.482 33.2964 130.045 32.6216H130.157V33.7462H132.184V28.3481C131.959 25.8739 130.045 24.412 127.68 24.412ZM127.455 32.1717C126.779 32.1717 125.766 31.8344 125.766 30.9347C125.766 29.8101 127.005 29.4727 128.018 29.4727C128.919 29.4727 129.369 29.6976 129.932 29.9225C129.707 31.2721 128.581 32.1717 127.455 32.1717ZM139.277 24.7493L136.913 30.8222H136.8L134.323 24.7493H132.071L135.787 33.2964L133.647 38.0197H135.787L141.529 24.7493H139.277ZM120.362 33.7462H122.501V19.6886H120.362V33.7462Z" fill="#0F1721"/>
<path d="M11.7096 8.44263C11.3719 8.78001 11.2593 9.34231 11.2593 10.0171V34.8709C11.2593 35.5456 11.4845 36.108 11.8222 36.4453L11.9348 36.5578L25.8963 22.6127V22.3877L11.7096 8.44263Z" fill="#0F1721"/>
<path d="M30.4 27.3358L25.7837 22.7249V22.3875L30.4 17.7766L30.5126 17.8891L36.0296 21.038C37.6059 21.9377 37.6059 23.3996 36.0296 24.2993L30.4 27.3358Z" fill="#0F1721"/>
<path d="M30.5127 27.2233L25.7838 22.5L11.7097 36.5576C12.2727 37.1199 13.0608 37.1199 14.0742 36.67L30.5127 27.2233Z" fill="#686D73"/>
<path d="M30.5127 17.7767L14.0742 8.44244C13.0608 7.88014 12.2727 7.9926 11.7097 8.5549L25.7838 22.5L30.5127 17.7767Z" fill="#686D73"/>
<path opacity="0.2" d="M30.4001 27.1111L14.0742 36.3329C13.1734 36.8952 12.3853 36.7827 11.8223 36.3329L11.7097 36.4453L11.8223 36.5578C12.3853 37.0076 13.1734 37.1201 14.0742 36.5578L30.4001 27.1111Z" fill="black"/>
<path opacity="0.12" d="M11.7096 36.3327C11.3719 35.9953 11.2593 35.433 11.2593 34.7582V34.8707C11.2593 35.5454 11.4845 36.1077 11.8222 36.4451V36.3327H11.7096ZM36.0296 23.962L30.4 27.1109L30.5126 27.2233L36.0296 24.0744C36.8178 23.6246 37.1556 23.0623 37.1556 22.5C37.1556 23.0623 36.7052 23.5121 36.0296 23.962Z" fill="black"/>
<path opacity="0.25" d="M14.0741 8.55489L36.0296 21.038C36.7052 21.4879 37.1556 21.9377 37.1556 22.5C37.1556 21.9377 36.8178 21.3754 36.0296 20.9256L14.0741 8.44243C12.4978 7.54274 11.2593 8.2175 11.2593 10.0169V10.1293C11.2593 8.44243 12.4978 7.6552 14.0741 8.55489Z" fill="white"/>
</g>
<defs>
<clipPath id="clip0">
<rect width="152" height="45" fill="white"/>
</clipPath>
</defs>
</svg>
