<svg width="32" height="32" viewBox="0 0 32 32" fill="none" xmlns="http://www.w3.org/2000/svg">
<path d="M16.0001 17.3334C18.2094 17.3334 20.0001 19.124 20.0001 21.3334C20.0001 22.4667 19.5294 23.488 18.7734 24.216L16.2267 26.6667H20.0001V29.3334H12.0001V27.0347L16.9241 22.2947C17.1774 22.0507 17.3334 21.7107 17.3334 21.3334C17.3334 20.5974 16.7361 20 16.0001 20C15.2641 20 14.6667 20.5974 14.6667 21.3334H12.0001C12.0001 19.124 13.7907 17.3334 16.0001 17.3334ZM24.0001 17.3334V22.6667H26.6668V17.3334H29.3334V29.3334H26.6668V25.3334H21.3334V17.3334H24.0001ZM5.33342 16C5.33342 19.3694 6.89475 22.3734 9.33342 24.328V27.5494C5.34808 25.244 2.66675 20.936 2.66675 16H5.33342ZM16.0001 2.66669C22.9134 2.66669 28.5988 7.92935 29.2668 14.6667H26.5841C25.9281 9.40535 21.4401 5.33335 16.0001 5.33335C12.3334 5.33335 9.09875 7.18269 7.18008 10H10.6667V12.6667H2.66675V4.66669H5.33342V8.00002C7.76542 4.76002 11.6387 2.66669 16.0001 2.66669Z" fill="#0F1721"/>
</svg>
