<svg width="131" height="92" viewBox="0 0 131 92" fill="none" xmlns="http://www.w3.org/2000/svg">
<path d="M34.8198 11.3807C33.4783 5.53045 30.13 0.775836 29.6793 0C28.951 1.09036 26.289 5.28932 24.9161 9.94958C23.4437 15.1393 23.2289 19.7471 23.7371 24.2868C24.2454 28.8265 26.1528 33.4815 26.1528 33.4815C27.1746 35.9296 28.6994 38.5507 29.6898 39.8402C31.1465 37.9478 34.4949 32.2916 35.5429 24.9159C36.1298 20.8165 36.1455 17.2257 34.8198 11.3807ZM29.6793 38.3829C29.0243 37.1458 28.0025 34.7921 27.9029 31.1488C27.8715 27.6313 29.2863 24.6223 29.695 23.9933C30.0566 24.6223 31.2828 27.2434 31.4295 30.8342C31.5133 34.357 30.3448 37.1196 29.6793 38.3829ZM34.4268 21.304C34.3849 23.5319 34.1229 25.8909 33.7718 27.2958C33.9028 24.8687 33.6093 21.4508 33.0434 18.7773C32.488 16.1091 30.916 11.648 29.6479 9.58263C28.4846 11.5484 27.0541 15.4066 26.2995 18.7511C25.5554 22.1008 25.5292 26.153 25.5292 27.3692C25.3249 26.347 24.8323 22.6932 24.9738 19.0237C25.0891 15.9938 25.7912 12.8852 26.1842 11.4541C27.6671 6.67324 29.344 3.61707 29.6479 3.12956C29.9675 3.61707 32.0792 7.37569 33.1744 11.3283C34.2643 15.2861 34.4844 19.0709 34.4268 21.304Z" fill="#C6C8C9"/>
<path d="M31.9326 41.2032H21.7827V48.018C21.7984 48.0075 21.8141 47.997 21.8141 47.9917C24.2036 45.6013 28.0916 45.6013 30.4758 47.9917C32.8653 50.3874 32.8653 54.2666 30.4758 56.657C30.4601 56.6675 30.4601 56.678 30.4444 56.6832V56.6884C30.4287 56.6989 30.413 56.7094 30.4025 56.7199C28.0288 59.0893 24.9005 60.2741 21.7827 60.2741C18.6544 60.2741 15.5209 59.0789 13.1314 56.6884C8.92896 52.4738 8.43116 45.963 11.6328 41.2032C12.0677 40.5584 12.5655 39.9503 13.1314 39.3789C15.5209 36.9885 18.6492 35.7933 21.7827 35.7933V19.4064C9.75688 19.4064 0 29.1672 0 41.2032C0 53.2391 9.75688 62.9947 21.7827 62.9947C28.0602 62.9947 33.7089 60.3422 37.6861 56.0961V41.2032H31.9326ZM50.5608 59.1103C50.5608 60.6358 50.3721 63 47.312 63H43.7016C40.6572 63 40.4685 60.6358 40.4685 59.1103V45.0981C40.4685 43.5726 40.6572 41.2032 43.7016 41.2032H47.312C50.3721 41.2032 50.5608 43.5674 50.5608 45.0981V48.1805H46.1906V44.6263C46.1906 44.2541 45.9129 43.9134 45.5042 43.9134C45.2579 43.9134 44.8177 44.0654 44.8177 44.6263V59.4878C44.8177 60.0487 45.2526 60.2007 45.5042 60.2007C45.9129 60.2007 46.1906 59.8599 46.1906 59.4878V54.7174H45.5356V52.3217H50.5608V59.1103ZM57.1108 54.8118L57.8548 43.9186H58.1011L58.8557 54.8118H57.1108ZM52.29 63H56.5553L56.9483 57.2127H59.0024L59.4111 63H63.6765L61.4023 41.2084H54.5589L52.29 63ZM65.2956 60.2583L69.4772 43.9186H65.7358V41.2032H73.9469V43.9134L69.7811 60.2007H74.2089V62.9947H65.2956V60.2583ZM80.6174 52.8722V43.9081H81.1728C81.6549 43.9081 81.9903 44.3118 81.9903 44.9985V51.7818C81.9903 52.4685 81.6549 52.8722 81.1728 52.8722H80.6174ZM76.2472 63H80.6174V55.5928H83.1064C86.1508 55.5928 86.3395 53.2286 86.3395 51.7032V45.0981C86.3395 43.5726 86.1508 41.2032 83.1064 41.2032H76.2472V63ZM92.9366 52.2169V43.9081H93.5026C93.9689 43.9081 94.3043 44.3118 94.3043 44.9985V51.1265C94.3043 51.8133 93.9689 52.2169 93.5026 52.2169H92.9366ZM99.2246 63L97.0815 54.5025C98.6273 53.8787 98.6535 52.4476 98.6535 51.8552V45.0981C98.6535 43.5726 98.4806 41.2032 95.4204 41.2032H88.577V62.9947H92.9314V54.9376H93.251L94.734 63H99.2246ZM107.294 59.4878C107.294 59.8599 107.017 60.2059 106.608 60.2059C106.362 60.2059 105.921 60.0487 105.921 59.4878V44.6263C105.921 44.0654 106.356 43.9134 106.608 43.9134C107.017 43.9134 107.294 44.2541 107.294 44.6263V59.4878ZM101.572 59.1103C101.572 60.6358 101.761 63 104.821 63H108.416C111.476 63 111.664 60.6358 111.664 59.1103V45.0981C111.664 43.5726 111.476 41.2032 108.416 41.2032H104.821C101.761 41.2032 101.572 43.5674 101.572 45.0981V59.1103ZM125.336 41.2084H131V63H126.646V49.3337H126.483L124.24 63H120.761L118.518 49.3337H118.356V63H114.001V41.2084H119.666L122.49 56.5259L125.336 41.2084Z" fill="#C6C8C9"/>
</svg>
