<svg width="160" height="160" viewBox="0 0 160 160" fill="none" xmlns="http://www.w3.org/2000/svg">
<path fill-rule="evenodd" clip-rule="evenodd" d="M75.6877 56.8703V58.3743H84.2997V56.8703C86.3765 56.5474 87.7063 54.6548 87.776 52.8586C87.8358 51.3271 86.9783 49.8645 84.8874 49.5051L85.0592 48.9133L82.3889 48.9149L82.1913 49.7093L81.1728 49.7101C81.3637 49.4611 81.4758 49.1507 81.4758 48.8137C81.4758 48.2882 81.2002 47.825 80.7852 47.5611V47.1303H81.5646V45.5474H80.7852V44.7671H79.2022V45.5474H78.422V47.1303H79.2022V47.5611C78.7872 47.8242 78.5108 48.2874 78.5108 48.8137C78.5108 49.1507 78.6245 49.4611 78.8146 49.7101L77.7961 49.7093L77.5985 48.9149L74.9282 48.9133L75.1009 49.5051C73.0066 49.862 72.1491 51.3254 72.2114 52.8602C72.2844 54.6548 73.6142 56.5449 75.6877 56.8703Z" fill="#C6C8C9"/>
<path fill-rule="evenodd" clip-rule="evenodd" d="M150.555 84.4342C142.014 84.1968 133.441 82.2005 126.289 77.3272C124.494 74.6444 121.117 73.1304 118.224 72.0164C117.226 69.3187 114.416 67.9508 111.902 66.9729C111.026 65.1468 109.974 64.6488 108.46 64.2893C107.95 64.1424 106.316 63.9332 105.51 63.7C103.487 63.114 101.294 62.2432 99.1562 63.4767C94.849 65.6307 100.536 69.8641 94.2132 71.0195C94.5095 69.9819 95.0466 68.8572 95.489 67.8711C93.7541 67.6511 91.1087 67.2535 90.2637 66.7281C90.2787 66.0956 90.4206 65.1053 90.6024 64.6554C90.6157 64.6164 90.9269 65.4506 90.9394 65.4116C91.0705 64.8422 91.3719 63.9175 91.8392 63.5033C92.7713 63.7274 96.2244 64.789 96.6561 62.4466C96.0161 62.4466 95.054 62.484 94.5369 62.0141C95.3587 61.6273 97.0761 61.4455 97.6704 62.337C97.7824 62.4773 97.8372 62.5055 97.9086 62.4225C99.1006 59.9987 96.2858 59.0002 95.0698 58.9803C94.942 58.6474 94.6838 58.4274 94.3435 58.2083V57.1964C95.4699 57.0827 96.0667 56.0211 96.0783 54.9993C96.0883 54.009 95.5496 53.0561 94.4132 53.0428L94.4746 52.773H93.0677L92.9689 53.1391H92.4775C92.5331 53.0532 92.5706 52.9568 92.5877 52.856C92.6048 52.7551 92.6012 52.6517 92.577 52.5523C92.5529 52.4529 92.5087 52.3594 92.4472 52.2776C92.3857 52.1958 92.3082 52.1274 92.2194 52.0766V51.7711H92.6701V51.0241H92.2202V50.5734H91.4698V51.0241H91.0191V51.7711H91.4698V52.0766C91.3813 52.1277 91.3041 52.1963 91.2429 52.2782C91.1817 52.3601 91.1378 52.4535 91.1138 52.5529C91.0898 52.6522 91.0863 52.7554 91.1034 52.8562C91.1205 52.957 91.1579 53.0532 91.2133 53.1391H90.7203L90.6231 52.773H89.2162L89.2759 53.0428C88.1329 53.0569 87.5951 54.0206 87.6125 55.0175C87.6299 56.0344 88.2251 57.0844 89.3457 57.1973V58.2149L89.3407 58.2158H89.3614C88.1147 58.3785 87.0854 58.249 86.2927 58.1377C86.306 58.7578 87.0057 59.69 87.9188 59.9921C87.3452 60.3507 86.4612 60.7383 85.8079 60.9334C85.7515 60.9624 86.599 61.116 86.5425 61.1442C86.0578 61.6282 84.8675 62.0274 84.2482 62.254C84.1918 62.2823 85.124 62.3661 85.0816 62.4084C84.8193 62.5313 83.4506 63.4062 83.4506 63.4062H76.5486C76.5486 63.4062 75.1814 62.5313 74.9191 62.4084C74.8768 62.3661 75.8081 62.2823 75.7517 62.254C75.1316 62.0283 73.9422 61.6282 73.4574 61.1442C73.4018 61.116 74.2484 60.9624 74.1912 60.9334C73.5379 60.7383 72.6547 60.3499 72.0803 59.9921C72.9926 59.69 73.6931 58.7578 73.7064 58.1377C72.9129 58.249 71.8853 58.3785 70.6377 58.2158H70.6443L70.6385 58.2149L70.6393 57.1973C71.7541 57.0852 72.3501 56.0427 72.3725 55.03C72.3949 54.0281 71.857 53.0569 70.709 53.0428L70.7688 52.773H69.3619L69.2639 53.1391H68.7717C68.8272 53.0532 68.8646 52.9569 68.8817 52.8561C68.8989 52.7552 68.8953 52.652 68.8712 52.5526C68.8471 52.4532 68.8031 52.3597 68.7417 52.2779C68.6804 52.1961 68.603 52.1276 68.5144 52.0766V51.7711H68.9659V51.0241H68.5144V50.5734H67.7648V51.0241H67.3133V51.7711H67.7648V52.0766C67.6761 52.1275 67.5986 52.196 67.5372 52.2778C67.4758 52.3596 67.4317 52.453 67.4075 52.5524C67.3834 52.6518 67.3797 52.7551 67.3967 52.8559C67.4138 52.9568 67.4512 53.0531 67.5067 53.1391H67.0153L66.9173 52.773H65.5103L65.5701 53.0428C64.4338 53.0569 63.895 54.009 63.9067 54.9993C63.9175 56.0211 64.5134 57.0836 65.6407 57.1964V58.2141L65.6349 58.2149H65.6457C65.3103 58.4324 65.0555 58.6499 64.9293 58.9803C63.7133 59.001 60.9002 59.9996 62.0913 62.4225C62.1619 62.5064 62.2183 62.4781 62.3304 62.337C62.9247 61.4464 64.6421 61.6282 65.4639 62.0141C64.9467 62.484 63.9847 62.4466 63.3455 62.4466C63.7764 64.7899 67.2302 63.7274 68.1616 63.5033C68.6289 63.9175 68.9294 64.8422 69.0614 65.4116C69.0738 65.4506 69.3851 64.6164 69.3975 64.6554C69.5802 65.1053 69.7229 66.0956 69.737 66.7281C68.892 67.2543 66.2466 67.6511 64.5118 67.8711C64.955 68.8572 65.4913 69.9819 65.7868 71.0195C59.4658 69.8641 65.1518 65.6307 60.8446 63.4767C58.7063 62.2432 56.5133 63.1131 54.4904 63.7C53.6853 63.9332 52.0508 64.1424 51.5395 64.2893C50.0255 64.6488 48.973 65.1468 48.0973 66.9729C45.583 67.9508 42.7749 69.3187 41.7755 72.0164C38.8835 73.1304 35.5068 74.6444 33.7106 77.3272C26.5587 82.1996 17.985 84.1959 9.44611 84.4342C8.20682 84.4682 7.39999 84.5371 7.05884 85.8868C7.05884 88.2724 9.69512 88.7215 11.4457 88.7638C11.4515 88.7638 11.5437 89.2535 11.6225 89.3971C12.7182 91.3893 15.5371 91.3918 17.1333 91.2415C18.8823 93.7624 22.4599 93.4271 24.7127 92.6908C26.1312 94.4049 30.4716 94.7751 32.8182 94.2621C35.9791 95.2524 37.5048 94.8805 38.5034 94.6597C38.3199 96.1414 36.4456 97.2446 35.2288 97.1557V107.791C37.2234 107.847 38.3764 109.014 38.5025 110.868H121.498C121.624 109.014 122.777 107.847 124.771 107.791V97.1557C123.555 97.2446 121.681 96.1414 121.497 94.6597C122.495 94.8805 124.022 95.2524 127.183 94.2621C129.53 94.7751 133.869 94.4057 135.289 92.6908C137.541 93.4271 141.118 93.7624 142.868 91.2415C144.465 91.3926 147.283 91.3901 148.379 89.3971C148.459 89.2535 148.551 88.7638 148.556 88.7638C150.306 88.7215 152.943 88.2724 152.943 85.8868C152.601 84.5371 151.793 84.4682 150.555 84.4342ZM39.8049 94.0214C44.386 92.7796 47.9653 90.1301 51.2722 87.6963C52.1704 88.4683 53.2271 88.3878 54.2572 87.5453C54.6 88.4675 55.1105 89.5548 56.6469 89.0975C56.9109 89.6295 57.8406 91.0257 59.3745 90.7244C60.6296 91.9902 61.2696 91.6292 61.8381 91.4457C62.3022 91.8624 63.1912 92.2036 64.1698 91.7097C64.784 92.387 65.473 92.3837 66.3122 92.0957C66.5297 92.4177 67.1929 92.514 67.4842 92.3065C68.5146 92.919 69.5658 93.4957 70.636 94.0355L39.8049 94.0214ZM89.6453 94.0355C90.7155 93.4957 91.7667 92.919 92.7971 92.3065C93.0876 92.514 93.75 92.4177 93.9675 92.0957C94.8075 92.3837 95.4965 92.3878 96.1107 91.7097C97.0885 92.2036 97.9767 91.8624 98.4424 91.4457C99.0101 91.6292 99.6501 91.9902 100.905 90.7244C102.439 91.0257 103.37 89.6295 103.634 89.0975C105.169 89.5548 105.68 88.4675 106.023 87.5453C107.053 88.3878 108.11 88.4675 109.008 87.6963C112.315 90.1309 115.895 92.7796 120.475 94.0214L89.6453 94.0355Z" fill="#C6C8C9"/>
<path fill-rule="evenodd" clip-rule="evenodd" d="M123.809 97.9468V107.037C122.397 107.15 120.855 108.469 120.719 109.9H39.1839C39.0461 108.468 37.5047 107.15 36.0928 107.037V97.9468C37.5661 97.5957 38.9723 96.3431 39.3026 94.8241H72.2587C73.8724 95.6351 77.5529 96.9466 80.0505 97.6006C82.6926 96.8852 85.2723 95.9566 87.7643 94.8241H120.599C120.93 96.3431 122.336 97.5957 123.809 97.9468Z" fill="white"/>
<path fill-rule="evenodd" clip-rule="evenodd" d="M92.5691 85.7133L92.5608 73.274C92.5591 71.7534 93.0065 70.2792 93.7121 68.912C90.3013 68.5028 87.2566 66.9066 84.6345 64.7252H75.4846C72.8658 66.9066 69.8203 68.5028 66.4079 68.912C67.1142 70.2783 67.5608 71.7534 67.56 73.274L67.5517 85.7133C67.55 87.7445 67.2371 88.1496 66.085 89.8487L66.1273 89.891C70.305 93.1258 74.9941 94.7934 80.06 95.8202C84.9499 94.9561 90.049 92.9457 93.9918 89.891L94.0341 89.8487C92.8828 88.1487 92.5699 87.7445 92.5691 85.7133ZM80.0583 94.4713C75.5917 93.4495 71.7834 92.0716 67.8987 89.5964C68.8142 88.5206 68.8931 86.9468 68.8815 85.6909L68.8864 73.3944C68.8864 72.1842 68.566 70.8876 68.1643 69.7554C70.3133 69.6375 74.6297 67.2627 75.7943 66.045H84.3265C85.4919 67.2619 89.8083 69.6375 91.9557 69.7554C91.5539 70.8876 91.2343 72.1842 91.2343 73.3944L91.2393 85.6909C91.226 86.9468 91.3074 88.5206 92.2221 89.5964C88.4071 92.0268 84.4103 93.4952 80.0583 94.4713Z" fill="white"/>
<path fill-rule="evenodd" clip-rule="evenodd" d="M119.777 96.1913H82.9674C81.3023 96.6926 79.9493 97.0164 79.9493 97.0164C79.9493 97.0164 78.7556 96.7225 76.917 96.1913H40.1419C39.9177 97.0985 38.5016 98.596 37.5288 98.7761V106.04C38.71 106.293 39.8214 107.356 40.1419 108.513H119.777C120.096 107.356 121.208 106.293 122.388 106.04V98.7761C121.416 98.596 120.061 97.2671 119.777 96.1913ZM119.523 96.8512H82.5283C81.108 97.2986 80.0505 97.6007 80.0505 97.6007C80.0505 97.6007 78.6585 97.2787 77.1105 96.8022L40.4365 96.8512C40.2456 97.6613 39.0379 98.9977 38.2078 99.1579V105.64C39.2147 105.866 40.1618 106.814 40.4365 107.846H119.523C119.795 106.814 120.744 105.866 121.751 105.64V99.1579C120.92 98.9977 119.764 97.8107 119.523 96.8512Z" fill="#C6C8C9"/>
<path fill-rule="evenodd" clip-rule="evenodd" d="M94.4895 88.3363C95.2482 85.9765 95.0697 83.6398 95.0232 81.1231C94.3476 81.4584 94.5094 81.4277 93.8089 81.226L93.7798 85.7349C93.7698 87.2805 94.0487 87.5635 94.4895 88.3363ZM99.4392 79.5626C98.5477 79.0272 97.8587 78.1672 97.1756 77.4011C96.7265 77.7813 96.5381 77.8161 95.9546 77.919C96.133 78.1623 98.1518 81.0841 99.4392 79.5626ZM97.7027 80.4233L97.3914 80.6118C97.8538 82.6205 99.2383 84.2333 100.381 83.8598C99.7737 83.0447 99.1769 81.5223 98.81 80.5221C98.4489 80.9488 97.9667 80.5661 97.7027 80.4233ZM104.512 74.4037C104.507 74.9416 104.267 75.0354 103.818 75.2122C104.19 75.6596 107.258 78.4154 108.244 76.9072C106.939 76.0912 105.721 75.3591 104.512 74.4037ZM110.82 75.9883C110.316 75.5741 107.556 74.2751 106.253 73.4508C106.037 73.9762 105.911 74.0119 105.41 74.2942C107.119 75.3965 109.429 77.5322 110.82 75.9883ZM105.973 77.4965C105.056 77.2417 103.55 75.9468 103.011 75.2836C102.849 75.5691 102.518 76.156 101.975 76.102C103.017 77.1404 105.104 79.0114 105.973 77.4965ZM101.222 76.2456C101.026 76.6989 100.079 76.8997 100.074 76.9047C100.406 77.2351 103.002 80.1154 103.907 78.564C103.045 77.8933 102.02 77.0782 101.222 76.2456ZM99.2798 76.9528C99.1437 77.558 98.4647 77.587 98.1252 77.602C98.4556 78.0917 101.269 80.8649 101.995 79.4223C100.987 78.6512 100.065 77.8277 99.2798 76.9528ZM94.9178 77.8327C94.7311 78.2245 93.8313 78.2602 93.8039 78.2121C94.0081 78.7043 95.7977 81.3098 97.0088 79.9834C96.7963 79.878 94.9369 77.792 94.9178 77.8327ZM94.3683 77.3861L93.8089 76.6383L93.8105 77.597C93.9857 77.5953 94.2256 77.5347 94.3683 77.3861ZM96.4103 77.1272C96.397 77.0989 96.1073 76.5237 95.42 75.9709C95.0863 76.5262 94.7767 76.4241 94.3276 76.3668C95.005 77.3646 95.6084 77.582 96.4103 77.1272ZM98.5651 76.8034C98.5211 76.454 97.6446 75.9385 97.2329 75.4322C97.2121 75.9178 96.7821 75.9385 96.2617 75.9709C96.597 76.3096 97.5906 77.5837 98.5651 76.8034ZM100.282 76.078C100.035 75.5882 99.3836 75.2545 99.0026 74.8686C98.9345 75.4156 98.5701 75.4396 97.9716 75.4911C98.4207 75.8646 99.6583 76.923 100.282 76.078ZM101.996 75.1508C101.571 75.0279 100.776 74.3141 100.475 74.0842C100.465 74.0767 100.436 74.3755 100.216 74.5274C100.009 74.6702 99.582 74.6544 99.4558 74.6511C99.7646 74.8586 101.113 76.4971 101.996 75.1508ZM103.766 74.3639C103.766 73.7886 102.852 73.3828 102.521 73.1329C102.397 73.816 101.824 73.8874 101.179 73.8468C101.675 74.3448 103.336 75.2222 103.766 74.3639ZM105.621 73.0848C105.11 72.6991 104.613 72.296 104.131 71.8762C103.792 72.5768 103.007 72.2564 102.769 72.5925C103.118 72.7976 105.008 74.6586 105.621 73.0848ZM110.946 74.7988C111.009 74.6353 111.103 74.5797 111.227 74.4535C111.331 74.3274 111.572 74.1564 111.623 74.085C110.501 73.8741 108.027 71.9459 107.292 71.2453C106.879 71.5317 106.266 71.7716 104.855 71.3865C106.709 72.8034 108.772 74.256 110.946 74.7988ZM114.795 73.5911C115.049 72.6921 113.565 72.8341 111.388 71.154C110.491 70.4078 109.51 69.4906 108.259 70.1887C108.048 70.329 108.061 70.6851 108.061 70.9664C109.583 72.5253 112.542 74.5623 114.795 73.5911ZM112.699 74.5091C115.342 76.9528 118.781 79.7028 122.606 79.7028C123.042 79.492 122.901 79.1268 122.831 78.7757C120.079 77.8161 117.154 76.058 114.897 74.2427C113.21 74.5423 112.699 74.4784 112.699 74.5091Z" fill="white"/>
<path fill-rule="evenodd" clip-rule="evenodd" d="M112.013 74.7291L111.438 75.2487L111.381 75.2911C111.396 75.3052 111.41 75.3326 111.438 75.3467C111.676 75.6281 111.732 75.9651 111.732 76.4291C113.983 78.3457 116.073 79.8988 119.195 80.5006C119.37 80.484 119.65 80.22 119.683 79.9876C116.433 78.6487 114.103 76.9578 112.013 74.7291ZM118.667 81.0625C117.813 81.0841 117.311 80.6799 116.559 80.3387C117.48 83.2663 119.899 84.8692 118.667 81.0625ZM115.44 79.873C114.328 79.4099 112.867 78.3615 112.816 78.2743C113.5 79.6705 115.888 84.9148 117.457 83.2472C116.645 82.3383 116.018 80.9314 115.44 79.873ZM111.251 76.8616C110.834 77.2982 110.448 77.2069 109.856 77.2617C110.685 78.8346 112.358 83.4597 114.735 82.8571C114.544 82.9326 111.629 77.7489 111.251 76.8616ZM109.111 77.2592C108.679 77.5746 108.2 78.0568 107.623 77.9846C108.401 79.1459 110.549 84.3014 112.556 82.9028C112.571 82.8887 110.567 81.2036 109.111 77.2592Z" fill="white"/>
<path fill-rule="evenodd" clip-rule="evenodd" d="M106.759 77.9888C106.566 78.393 106.232 78.5574 105.749 78.6346C106.912 81.8527 111.402 87.7005 114.507 88.0234C114.702 88.0234 115.484 87.9254 115.286 87.7428C113.482 86.5484 108.999 82.6089 106.759 77.9888Z" fill="white"/>
<path fill-rule="evenodd" clip-rule="evenodd" d="M105.005 78.6902L104.663 78.6271C104.46 79.038 104.303 79.3999 103.823 79.5567C106.459 85.8603 110.142 88.0765 111.016 86.8854C108.259 84.7181 106.211 82.0013 105.005 78.6902Z" fill="white"/>
<path fill-rule="evenodd" clip-rule="evenodd" d="M103.064 79.6331C102.917 79.6331 102.789 79.5733 102.638 79.5293C102.594 79.516 102.529 80.039 101.932 80.2955C102.399 81.69 106.149 88.9788 108.236 87.185C106.017 85.241 103.998 82.4354 103.064 79.6331ZM104.264 85.7739C104.133 86.4479 103.879 87.4332 103.782 88.2102C104.697 88.3405 105.089 87.649 105.245 86.8704L104.264 85.7739ZM103.697 85.1148C102.726 83.7544 101.696 82.105 101.231 80.488C100.785 80.6026 100.073 80.3668 99.6809 80.1626C100.151 82.3258 101.503 85.5996 103.697 85.1148ZM102.132 85.5755C101.857 87.0414 101.67 88.4501 101.13 89.7939C103.192 89.8247 103.093 87.3062 103.502 85.8179C103.238 85.8752 102.664 85.9009 102.132 85.5755ZM101.466 85.2709C101.48 85.207 101.154 85.0393 100.93 84.7994C100.747 84.6035 100.706 84.44 100.692 84.4516C100.556 84.567 99.9963 84.5047 99.8652 84.5172C100.097 85.0509 99.2069 90.4779 98.7404 90.8274C100.657 91.7861 101.044 87.2481 101.466 85.2709ZM99.314 84.5089C98.6914 84.1928 98.1316 83.7658 97.6622 83.2488C97.6215 85.7341 97.6041 88.8203 96.5034 91.0581C98.7745 92.6129 99.1812 85.7083 99.314 84.5089Z" fill="white"/>
<path fill-rule="evenodd" clip-rule="evenodd" d="M96.8064 80.776C96.6653 80.9479 95.7929 81.2234 95.6244 81.0591C95.7522 83.6256 95.8917 86.6205 95.0973 89.0767C95.4119 89.3116 95.7348 89.5249 96.0818 89.7092C95.5356 90.218 94.9811 90.7119 94.381 91.156C94.3129 91.2241 94.3029 91.2515 94.2548 91.3527C97.3576 92.3953 97.3385 82.3258 96.8064 80.776ZM94.913 80.6034C94.5744 80.2265 93.9859 79.4156 93.8157 79.0536L93.8174 80.4183C93.9676 80.7204 94.3112 80.7105 94.913 80.6034ZM106.79 65.0529C105 64.5624 103.312 63.8277 101.415 63.9381C100.226 64.0303 98.4807 65.0015 98.3977 66.4026C98.6849 69.9993 98.3603 71.3448 93.9892 72.0944C93.7642 73.3029 93.8041 74.4435 93.8057 75.6703C93.9942 75.7342 94.2399 75.8014 94.5204 75.7259C95.1604 75.5533 94.3635 75.0104 94.1295 74.2002C94.298 74.1305 94.4847 74.0176 94.6242 74.138C94.7246 74.1762 94.9861 74.6169 95.3978 75.11C95.7805 75.5707 96.9118 75.3972 96.452 74.8834C96.1341 74.529 95.5505 73.8616 95.5879 73.6607C95.9058 73.3635 96.193 73.5055 96.403 73.7869C96.789 74.27 97.5651 75.2345 98.3014 74.7448C98.699 74.568 97.507 73.2664 97.3775 73.0788C97.3161 72.99 97.6157 72.7053 97.6987 72.7783C98.362 73.3602 98.9986 74.4194 99.91 73.8782C100.176 73.4441 99.866 73.0589 98.8625 72.2363C98.8774 72.2222 99.3306 71.8686 99.3439 71.8553C99.7424 72.1641 101.148 73.6856 101.805 72.9958C102.452 72.3177 100.235 71.4851 100.007 71.0734C100.049 71.0169 100.351 70.6965 100.422 70.655C100.664 70.8003 103.05 72.6007 103.765 71.0203C103.61 70.9356 102.896 70.6725 101.559 69.8117C101.346 69.6756 101.588 69.3477 101.742 69.2074C106.377 71.9898 107.496 70.4791 107.249 70.0366C106.355 69.815 105.236 69.6614 102.487 68.3226C102.417 68.042 102.585 67.7747 102.655 67.5639C103.062 67.7814 109.741 70.9024 109.597 68.3931C107.499 68.0586 105.481 67.6294 103.639 66.3835C103.428 66.1735 103.695 65.6954 103.906 65.6248C105.785 66.7529 108.418 67.9067 110.649 67.1845C110.269 65.4696 108.216 65.4439 106.79 65.0529ZM112.124 68.076C111.475 67.798 111.001 68.1723 110.38 68.1723C110.591 68.4537 110.38 68.9642 110.241 69.2448C113.218 71.4776 113.14 71.437 114.795 72.15C115.504 72.4604 116.301 72.2786 116.833 72.067C116.221 69.6025 114.16 69.0937 112.124 68.076ZM125.178 77.7778C123.37 75.2694 120.742 74.0973 118.002 72.9045C117.307 73.1901 116.363 73.239 115.645 73.195C115.731 73.4258 115.67 73.723 115.492 73.9313C115.876 74.2002 125.889 80.7727 125.178 77.7778Z" fill="white"/>
<path fill-rule="evenodd" clip-rule="evenodd" d="M149.09 87.7644C150.987 87.9254 152.147 86.452 151.581 85.949C151.337 85.3837 150.441 85.3713 150.097 85.3555C140.688 84.9206 131.99 82.4669 125.951 78.4229C125.488 79.8032 124.43 79.3641 123.603 79.0064C123.758 79.3716 123.618 79.6588 123.364 80.1145C129.919 84.7687 140.332 87.7561 149.09 87.7644Z" fill="white"/>
<path fill-rule="evenodd" clip-rule="evenodd" d="M147.209 88.6459C137.772 88.3604 130.379 85.6145 122.467 80.5602C122.142 80.4058 121.4 80.4772 120.481 80.1668C120.461 80.161 119.981 80.913 119.641 81.0184C119.618 81.0259 119.761 81.7306 119.869 81.973C124.391 86.7044 146.35 93.5309 147.209 88.6459Z" fill="white"/>
<path fill-rule="evenodd" clip-rule="evenodd" d="M141.16 91.0489C133.07 90.047 126.034 87.248 119.658 83.1807C119.628 83.5965 119.509 84.9579 117.845 83.6264C117.519 84.2457 116.898 84.0813 116.829 84.0664C118.089 86.3408 138.99 95.6193 141.16 91.0489Z" fill="white"/>
<path fill-rule="evenodd" clip-rule="evenodd" d="M133.558 92.4485C126.632 90.7867 120.612 88.3812 114.937 83.468C114.017 83.6348 113.201 82.9749 112.061 83.8432C115.45 88.2442 128.757 96.3797 133.558 92.4485Z" fill="white"/>
<path fill-rule="evenodd" clip-rule="evenodd" d="M126.093 93.5666C121.12 92.1148 119.477 90.658 115.937 88.4791C114.341 89.4793 112.722 88.4243 111.557 87.5386C111.458 87.61 110.738 87.6756 110.668 87.8723C115.391 91.5047 120.941 94.7046 126.093 93.5666ZM68.1508 52.3389H68.1541H68.1508ZM91.8549 52.3389H91.8599H91.8549ZM91.8616 52.3389C91.9677 52.3393 92.0693 52.3817 92.1443 52.4569C92.2192 52.532 92.2614 52.6337 92.2617 52.7398C92.2612 52.8462 92.2187 52.948 92.1435 53.0231C92.0682 53.0982 91.9662 53.1405 91.8599 53.1407H91.8566C91.7503 53.141 91.6482 53.0989 91.5728 53.0239C91.4975 52.9489 91.4551 52.847 91.4548 52.7407C91.4546 52.6343 91.4966 52.5323 91.5717 52.4569C91.6467 52.3816 91.7486 52.3391 91.8549 52.3389H91.8616ZM68.1566 52.3389C68.2584 52.3457 68.3539 52.391 68.4236 52.4656C68.4932 52.5402 68.5319 52.6385 68.5317 52.7406C68.5315 52.8427 68.4924 52.9409 68.4224 53.0152C68.3524 53.0895 68.2568 53.1344 68.1549 53.1407H68.1524C68.0505 53.1344 67.9549 53.0895 67.8849 53.0152C67.8149 52.9409 67.7758 52.8427 67.7756 52.7406C67.7754 52.6385 67.8141 52.5402 67.8838 52.4656C67.9534 52.391 68.0489 52.3457 68.1508 52.3389H68.1566ZM68.1566 52.3389H68.1557H68.1566ZM79.0611 46.6198V46.0844H79.7401V45.4045H80.2755V46.0844H80.9553V46.6198H80.2755V47.2996H79.7401V46.6198H79.0611ZM80.0082 47.957C80.4872 47.957 80.8781 48.3471 80.8781 48.8261C80.8777 49.0566 80.7859 49.2777 80.6229 49.4407C80.4598 49.6037 80.2388 49.6955 80.0082 49.696C79.7857 49.6841 79.5762 49.5873 79.4228 49.4255C79.2695 49.2637 79.184 49.0494 79.184 48.8265C79.184 48.6036 79.2695 48.3892 79.4228 48.2275C79.5762 48.0657 79.7857 47.9689 80.0082 47.957ZM76.4705 57.6505V57.0462H83.5443V57.6505H76.4705ZM79.5799 56.2975L77.992 50.3833C78.2875 50.3833 78.5814 50.3974 78.8769 50.3974L80.0066 54.7602L81.1388 50.3974C81.4335 50.3974 81.729 50.3833 82.0236 50.3833L80.4357 56.2975H79.5799Z" fill="white"/>
<path fill-rule="evenodd" clip-rule="evenodd" d="M80.0083 52.2699L79.6497 50.4106H80.3669L80.0083 52.2699ZM83.0828 49.6237L81.2393 56.2975H82.0643L84.025 49.6237H83.0828ZM84.6799 50.228C84.0781 52.2591 83.4771 54.2779 82.8853 56.3116C85.3888 56.2742 86.8754 54.5153 86.9319 52.88C86.9717 51.703 86.2736 50.589 84.6799 50.228ZM76.9337 49.6237L78.7756 56.2975H77.9522L75.9907 49.6237H76.9337ZM75.3358 50.228C75.9376 52.2591 76.5394 54.2779 77.1329 56.3116C74.6286 56.2742 73.1419 54.5153 73.0855 52.8792C73.044 51.7022 73.7429 50.589 75.3358 50.228ZM91.9828 50.9866V51.2938H92.2891V51.5386H91.9828V51.8458H91.733V51.5386H91.4267V51.2938H91.733V50.9866H91.9828ZM92.0318 53.6371L91.8583 54.5834L91.6848 53.6371H92.0318Z" fill="white"/>
<path fill-rule="evenodd" clip-rule="evenodd" d="M91.8581 55.9249C92.0266 55.1596 92.2324 54.4034 92.4109 53.6405H92.8616L92.1046 56.7433H91.6115L90.8545 53.6405H91.3052C91.4837 54.4034 91.6945 55.1587 91.8581 55.9249ZM93.6659 57.2331V57.7203H90.051L90.046 57.2331C90.0452 57.2331 92.4615 57.2314 93.6659 57.2331ZM90.2917 56.7342L89.4359 53.5708C88.5785 53.5708 88.1759 54.2656 88.1942 55.0085C88.2199 55.9631 88.9412 56.9965 90.2917 56.7342ZM90.2859 53.2471H89.8302L90.764 56.7425H91.1525L90.2859 53.2471ZM93.4244 56.7342L94.2818 53.5708C95.1376 53.5708 95.5419 54.2656 95.522 55.0085C95.4962 55.9631 94.7749 56.9965 93.4244 56.7342ZM93.4327 53.2471H93.8876L92.9537 56.7425H92.5653L93.4327 53.2471ZM68.2776 50.9868V51.2939H68.5848V51.5388H68.2776V51.8459H68.0294V51.5388H67.7231V51.2939H68.0294V50.9868H68.2776ZM68.3266 53.6372L68.1531 54.5835L67.9796 53.6372H68.3266Z" fill="white"/>
<path fill-rule="evenodd" clip-rule="evenodd" d="M68.1534 55.9249C68.3227 55.1595 68.5278 54.4034 68.707 53.6405H69.1569L68.3999 56.7433H67.9069L67.1498 53.6405H67.6006C67.779 54.4034 67.9899 55.1587 68.1534 55.9249ZM69.9613 57.233L69.9629 57.7203H66.3455L66.3463 57.233H69.9613ZM66.5879 56.7342L65.7304 53.5708C64.858 53.5708 64.4571 54.2905 64.492 55.0475C64.5351 55.9913 65.2565 56.9932 66.5879 56.7342ZM66.5796 53.2471H66.1255L67.0585 56.7425H67.447L66.5796 53.2471ZM69.7189 56.7342L70.5772 53.5708C71.4346 53.5708 71.8364 54.2656 71.8165 55.0085C71.7924 55.963 71.0702 56.9965 69.7189 56.7342ZM69.7272 53.2471H70.1821L69.2491 56.7425H68.8598L69.7272 53.2471ZM70.1862 66.2218L70.4435 66.4061L70.1406 66.5497L70.1862 66.2218ZM75.7053 63.417H74.7084C74.5711 63.5832 74.4256 63.7425 74.2726 63.8943C74.1456 63.754 74.0751 63.5291 74.0892 63.2336C74.652 62.8966 75.2048 63.0551 75.7053 63.417ZM74.5748 62.533C73.8285 63.1547 72.2672 62.2184 72.0912 61.7992C72.6474 61.8391 72.7727 61.6017 73.0226 61.5568C73.5347 61.4672 74.3805 62.1163 74.5748 62.533ZM72.3054 65.0747L72.6 65.1585C72.5461 65.1585 72.3544 65.3104 72.2913 65.3411C72.3244 65.2561 72.3293 65.1627 72.3054 65.0747ZM71.8115 64.0711C72.7536 64.2396 73.0881 63.7225 72.9437 63.1406C73.2434 63.3158 73.4351 63.5274 73.8783 64.2463L73.2326 64.7235C72.9055 64.6771 72.1568 64.3924 71.8115 64.0711ZM69.826 64.5277C70.1763 64.4222 70.5838 64.14 70.5797 63.6561C71.482 64.0404 71.804 65.4274 71.2529 66.0575C70.6477 66.4044 69.899 65.112 69.826 64.5277ZM68.9361 61.8308C69.5106 61.7013 69.7023 61.0928 69.7836 60.7915C70.1787 61.0405 70.842 61.7428 70.5888 62.25C70.0584 62.5313 69.3703 62.1213 68.9361 61.8308ZM70.319 62.7779C70.949 62.7779 71.262 62.3587 71.0927 61.7469C72.0921 62.1005 72.4897 62.9414 72.3685 63.432C71.9933 63.9151 70.6029 63.3448 70.319 62.7779ZM72.854 61.0987C72.141 61.6133 71.2047 61.5651 70.0426 60.3117C71.0852 60.1225 72.0954 60.3989 72.854 61.0987ZM72.6706 58.8226C72.1618 59.5788 71.4363 59.9067 70.5066 59.7913C69.2242 59.607 67.6097 59.4775 66.3945 59.7174L66.2393 59.3505C66.7448 57.7145 71.2329 59.2559 72.6706 58.8226ZM64.6904 62.8401C65.3561 62.8401 66.2642 62.621 66.6012 62.2093C66.5804 61.9362 65.9952 61.4772 65.7578 61.3585C64.7236 61.0663 63.5955 60.8297 62.6443 61.5203C62.3172 60.0959 64.5077 59.7232 65.7728 59.7232C66.1911 60.9791 67.359 61.7677 68.1194 62.8003C67.9492 62.8327 65.2473 63.5266 64.6904 62.8401ZM68.2588 61.7453C67.457 61.1759 67.2287 60.9692 66.6394 60.1715C66.7381 60.1574 66.8535 60.1574 66.9515 60.1432C67.1988 60.4886 67.4321 60.6645 67.7525 60.8322L68.3568 60.1159C68.6307 60.1358 68.9146 60.1275 69.186 60.1723C69.1594 61.1775 68.8888 61.2937 68.2588 61.7453ZM68.5842 62.7936C68.9469 62.67 68.9635 62.7264 69.0706 62.3595L69.6077 62.7986C69.8318 63.0227 70.1754 63.6627 69.8932 64.1591C69.0731 64.1118 68.795 63.4295 68.5842 62.7936ZM65.5229 88.397C64.7642 86.0371 64.9435 83.6665 64.9892 81.1489C65.6665 81.3796 65.5047 81.2701 66.2052 81.1738L66.1986 85.7549C66.1969 87.0847 66.0483 87.2474 65.5229 88.397ZM60.5741 79.5884C61.4656 79.053 62.1537 78.193 62.8368 77.4269C63.2867 77.8062 63.4743 77.8411 64.0587 77.944C63.8802 78.188 61.8607 81.1099 60.5741 79.5884ZM62.3097 80.4491L62.6202 80.6376C62.1578 82.6463 60.7741 84.26 59.6303 83.8856C60.2379 83.0705 60.8347 81.5481 61.2016 80.5479C61.5635 80.9746 62.0466 80.5919 62.3097 80.4491ZM55.5015 74.4295C55.5065 74.9674 55.7456 75.0603 56.1955 75.2372C55.8228 75.6846 52.754 78.4404 51.7696 76.9321C53.0728 76.117 54.2913 75.3841 55.5015 74.4295ZM49.193 76.0141C49.6977 75.5991 52.456 74.3008 53.7592 73.4766C53.9742 74.002 54.1021 74.0377 54.6026 74.3191C52.8943 75.4231 50.5842 77.5588 49.193 76.0141ZM54.0406 77.5231C54.957 77.2683 56.4619 75.9734 57.0015 75.3102C57.1642 75.5957 57.4954 76.1826 58.0374 76.1286C56.9957 77.1662 54.9089 79.0372 54.0406 77.5231ZM58.7903 76.2714C58.987 76.7246 59.9324 76.9263 59.9374 76.9305C59.607 77.2608 57.0106 80.1412 56.1058 78.5906C56.9674 77.9199 57.9934 77.104 58.7903 76.2714ZM60.7334 76.9786C60.8696 77.5837 61.5486 77.6128 61.8881 77.6277C61.5577 78.1175 58.7438 80.8907 58.0175 79.4472C59.0243 78.6769 59.9482 77.8535 60.7334 76.9786ZM65.0946 77.8593C65.2814 78.2511 66.182 78.2868 66.2085 78.2378C66.0035 78.7301 64.2147 81.3356 63.0037 80.01C63.217 79.9046 65.0755 77.8187 65.0946 77.8593ZM65.6441 77.4119L66.2044 76.664L66.2036 77.6236C66.0276 77.6219 65.7869 77.5605 65.6441 77.4119ZM63.6013 77.1529C63.6163 77.1239 63.906 76.5495 64.5932 75.9967C64.9269 76.5511 65.2365 76.4499 65.6856 76.3926C65.0083 77.3895 64.404 77.6078 63.6013 77.1529ZM61.4465 76.83C61.4905 76.4806 62.3678 75.9651 62.7787 75.4579C62.8011 75.9444 63.2303 75.9643 63.7499 75.9967C63.4162 76.3353 62.4218 77.6095 61.4465 76.83ZM59.7307 76.1046C59.9764 75.6148 60.6297 75.2811 61.0099 74.896C61.0771 75.443 61.4431 75.4671 62.0416 75.5177C61.5917 75.8912 60.3541 76.9496 59.7307 76.1046ZM58.0166 75.1766C58.4425 75.0537 59.2368 74.3398 59.5381 74.1099C59.5473 74.1024 59.5755 74.4013 59.7971 74.554C60.0046 74.6968 60.4305 74.681 60.5583 74.6777C60.2479 74.8844 58.899 76.5238 58.0166 75.1766ZM56.2469 74.3905C56.2469 73.8153 57.1617 73.4093 57.492 73.1595C57.6157 73.8426 58.1885 73.9149 58.8343 73.8734C58.337 74.3714 56.6753 75.2479 56.2469 74.3905ZM54.3917 73.1114C54.9018 72.7256 55.3985 72.3225 55.8809 71.9028C56.2195 72.6034 57.0056 72.2838 57.2438 72.6191C56.8944 72.8233 55.0043 74.6852 54.3917 73.1114ZM49.0669 74.8254C49.0021 74.6619 48.9092 74.6063 48.7863 74.4801C48.6817 74.354 48.4402 74.183 48.3904 74.1108C49.5118 73.8999 51.9854 71.9725 52.7192 71.2711C53.1334 71.5566 53.746 71.7965 55.1579 71.4122C53.3044 72.8291 51.2408 74.2817 49.0669 74.8254ZM45.2179 73.6169C44.9647 72.7179 46.4489 72.859 48.6253 71.1798C49.5226 70.4336 50.5021 69.5163 51.7538 70.2136C51.9646 70.3539 51.9522 70.71 51.9522 70.9914C50.4298 72.5511 47.4707 74.588 45.2179 73.6169ZM47.3129 74.5349C44.6709 76.9786 41.2302 79.7286 37.4053 79.7286C36.9695 79.5186 37.1098 79.1526 37.1803 78.8023C39.932 77.8427 42.8572 76.0846 45.1141 74.2685C46.8025 74.5681 47.3129 74.5042 47.3129 74.5349Z" fill="white"/>
<path fill-rule="evenodd" clip-rule="evenodd" d="M47.9993 74.7549L48.5754 75.2745L48.631 75.3168C48.6177 75.3309 48.6027 75.3583 48.5754 75.3733C48.3363 75.6538 48.2807 75.9917 48.2807 76.4549C46.0295 78.3715 43.9403 79.9245 40.8184 80.5271C40.6424 80.5105 40.3627 80.2457 40.3303 80.0133C43.58 78.6753 45.91 76.9836 47.9993 74.7549ZM41.3463 81.0883C42.2013 81.1098 42.7018 80.7064 43.4539 80.3644C42.5325 83.2929 40.1145 84.8958 41.3463 81.0883ZM44.5711 79.8988C45.6834 79.4356 47.1443 78.3881 47.1974 78.3001C46.5126 79.6971 44.1245 84.9406 42.5557 83.2738C43.3684 82.3649 43.9942 80.9571 44.5711 79.8988ZM48.7605 76.8873C49.178 77.3239 49.564 77.2335 50.155 77.2874C49.3257 78.8612 47.6532 83.4855 45.2767 82.8829C45.4684 82.9584 48.3828 77.7747 48.7605 76.8873ZM50.9012 77.2849C51.3345 77.6003 51.8134 78.0826 52.3895 78.0104C51.6117 79.1716 49.4635 84.3263 47.4564 82.9293C47.4415 82.9152 49.4453 81.2294 50.9012 77.2849Z" fill="white"/>
<path fill-rule="evenodd" clip-rule="evenodd" d="M53.2543 78.0145C53.4461 78.4188 53.7806 78.5831 54.2629 78.6603C53.0991 81.8785 48.611 87.7263 45.5058 88.0492C45.3099 88.0492 44.5288 87.9513 44.7263 87.7687C46.53 86.5742 51.014 82.6355 53.2543 78.0145Z" fill="white"/>
<path fill-rule="evenodd" clip-rule="evenodd" d="M55.0068 78.7159L55.3504 78.6528C55.5521 79.0637 55.7099 79.4256 56.1905 79.5825C53.5533 85.886 49.8711 88.1031 48.9971 86.9112C51.7537 84.7455 53.8015 82.0271 55.0068 78.7159Z" fill="white"/>
<path fill-rule="evenodd" clip-rule="evenodd" d="M56.9483 79.6589C57.096 79.6589 57.2238 79.6 57.3757 79.5552C57.4197 79.5427 57.4828 80.0648 58.0813 80.3213C57.614 81.715 53.8629 89.0046 51.7761 87.2108C53.9965 85.2676 56.0136 82.4612 56.9483 79.6589ZM55.748 85.7997C55.88 86.4737 56.1331 87.459 56.2302 88.2368C55.3163 88.3663 54.9246 87.6748 54.7677 86.8962L55.748 85.7997ZM56.3166 85.1406C57.2869 83.7802 58.317 82.1308 58.7819 80.5139C59.2284 80.6284 59.939 80.3927 60.3316 80.1885C59.861 82.3516 58.5096 85.6254 56.3166 85.1406ZM57.8813 85.6013C58.156 87.0672 58.3428 88.4758 58.8831 89.8197C56.8204 89.8504 56.9192 87.332 56.5108 85.8437C56.9819 85.9337 57.4696 85.8474 57.8813 85.6013ZM58.547 85.2975C58.5329 85.2336 58.8582 85.0651 59.0824 84.8252C59.265 84.6293 59.3073 84.4658 59.3206 84.4774C59.4575 84.5928 60.017 84.5305 60.149 84.543C59.9157 85.0767 60.8064 90.5037 61.2737 90.8531C59.3554 91.811 58.9686 87.2747 58.547 85.2975ZM60.6985 84.5347C61.3214 84.2186 61.8814 83.7916 62.3512 83.2747C62.391 85.7599 62.4093 88.846 63.5108 91.0839C61.2372 92.6386 60.8321 85.7341 60.6985 84.5347Z" fill="white"/>
<path fill-rule="evenodd" clip-rule="evenodd" d="M63.2061 80.8027C63.3464 80.9745 64.2204 81.2501 64.3889 81.0858C64.2603 83.6523 64.1217 86.6472 64.9152 89.1033C64.6044 89.3396 64.2755 89.5511 63.9316 89.7359C64.4769 90.2447 65.0314 90.7386 65.6315 91.1835C65.7004 91.2507 65.7104 91.2781 65.7577 91.3794C62.6549 92.4211 62.674 82.3524 63.2061 80.8027ZM65.0995 80.6301C65.439 80.2532 66.0267 79.4422 66.1968 79.0812L66.196 80.4458C66.0449 80.7463 65.7021 80.738 65.0995 80.6301ZM53.2237 65.0788C55.0125 64.5882 56.7009 63.8536 58.5968 63.964C59.7854 64.057 61.531 65.0273 61.614 66.4285C61.3277 70.0252 61.6531 71.3707 66.0225 72.1202C66.2483 73.3288 66.2076 74.4701 66.206 75.6962C66.0192 75.7609 65.7727 75.8281 65.4921 75.7518C64.8513 75.5791 65.6482 75.0362 65.8814 74.2269C65.7129 74.1572 65.527 74.0443 65.3875 74.1639C65.2862 74.202 65.0256 74.6428 64.6147 75.1359C64.2312 75.5965 63.099 75.4239 63.5605 74.9093C63.8785 74.5548 64.462 73.8874 64.4246 73.6866C64.1067 73.3894 63.8195 73.5313 63.6095 73.8127C63.2235 74.2958 62.4474 75.2604 61.712 74.7706C61.3136 74.5938 62.5055 73.2923 62.635 73.1047C62.6964 73.0159 62.3968 72.7312 62.3138 72.8042C61.6514 73.3861 61.0139 74.4452 60.1033 73.904C59.836 73.4699 60.1465 73.0856 61.1492 72.2622C61.1351 72.2481 60.6827 71.8953 60.6678 71.8812C60.2693 72.19 58.864 73.7115 58.2075 73.0217C57.5617 72.3427 59.7771 71.5101 60.0062 71.0993C59.9639 71.0436 59.6609 70.7224 59.5912 70.6809C59.3488 70.8262 56.9624 72.6274 56.2477 71.0461C56.4021 70.9615 57.1159 70.6983 58.4531 69.8376C58.6656 69.7006 58.4249 69.3736 58.2705 69.2333C53.6355 72.0148 52.5165 70.5049 52.7631 70.0625C53.6587 69.8409 54.776 69.6873 57.526 68.3484C57.5957 68.0679 57.4272 67.8006 57.3566 67.5897C56.9499 67.8064 50.2704 70.9274 50.4156 68.419C52.5116 68.0845 54.5319 67.6561 56.373 66.4102C56.5838 66.1994 56.3166 65.7213 56.1066 65.6507C54.2273 66.7796 51.5943 67.9326 49.3623 67.2104C49.7433 65.4963 51.7969 65.4698 53.2237 65.0788ZM47.8898 68.1019C48.538 67.8238 49.0103 68.1982 49.6321 68.1982C49.4212 68.4796 49.6321 68.9901 49.7723 69.2706C46.7949 71.5035 46.8738 71.4628 45.2178 72.1759C44.5072 72.4871 43.7112 72.3045 43.18 72.0937C43.7926 69.6284 45.8519 69.1204 47.8898 68.1019ZM34.8345 77.8037C36.6432 75.2952 39.2695 74.1232 42.0112 72.9304C42.7068 73.2159 43.649 73.2649 44.3686 73.2209C44.2823 73.4517 44.3412 73.7488 44.5205 73.9563C44.1379 74.2261 34.1231 80.7986 34.8345 77.8037Z" fill="white"/>
<path fill-rule="evenodd" clip-rule="evenodd" d="M10.922 87.791C9.02532 87.952 7.86572 86.4787 8.43182 85.9757C8.67503 85.4112 9.57233 85.3979 9.91598 85.3822C19.3248 84.9472 28.023 82.4935 34.0618 78.4495C34.5241 79.8299 35.5833 79.3908 36.4109 79.033C36.2556 79.3982 36.3943 79.6854 36.6491 80.1411C30.0949 84.7945 19.6817 87.7819 10.922 87.791Z" fill="white"/>
<path fill-rule="evenodd" clip-rule="evenodd" d="M12.8044 88.6717C22.2415 88.3861 29.6348 85.6403 37.5462 80.586C37.8708 80.4316 38.6128 80.503 39.5325 80.1925C39.5508 80.1859 40.0314 80.9388 40.3717 81.045C40.3933 81.0517 40.2522 81.7564 40.1435 81.9988C35.6204 86.731 13.6619 93.5566 12.8044 88.6717Z" fill="white"/>
<path fill-rule="evenodd" clip-rule="evenodd" d="M18.8533 91.0756C26.9431 90.0737 33.9787 87.2756 40.3544 83.2074C40.386 83.6233 40.5038 84.9846 42.1681 83.654C42.4935 84.2732 43.1144 84.108 43.1841 84.0931C41.9249 86.3666 21.0222 95.646 18.8533 91.0756Z" fill="white"/>
<path fill-rule="evenodd" clip-rule="evenodd" d="M26.4558 92.4741C33.3802 90.8124 39.3998 88.4068 45.0758 83.4945C45.9955 83.6605 46.8115 83.0015 47.952 83.8689C44.5628 88.2699 31.2561 96.4061 26.4558 92.4741Z" fill="white"/>
<path fill-rule="evenodd" clip-rule="evenodd" d="M33.9189 93.5924C38.8935 92.1407 40.5354 90.6839 44.0756 88.505C45.6718 89.506 47.2921 88.4502 48.4575 87.5645C48.5555 87.6359 49.2751 87.7015 49.3457 87.8982C44.6226 91.5314 39.0712 94.7305 33.9189 93.5924ZM89.8413 66.2218L89.5839 66.4061L89.8852 66.5497L89.8413 66.2218ZM84.323 63.4171H85.3199C85.4461 63.5714 85.5855 63.7258 85.754 63.8943C85.8802 63.7541 85.9516 63.5291 85.9375 63.2336C85.3755 62.8966 84.8227 63.0551 84.323 63.4171ZM85.4527 62.533C86.1981 63.1547 87.7594 62.2184 87.9346 61.7992C87.3784 61.8391 87.2556 61.6017 87.0041 61.5569C86.4936 61.4672 85.6478 62.1163 85.4527 62.533ZM87.7229 65.0747L87.4283 65.1585C87.483 65.1585 87.6748 65.3104 87.7362 65.3411C87.7034 65.256 87.6987 65.1626 87.7229 65.0747ZM88.2152 64.0711C87.273 64.2396 86.9393 63.7225 87.0838 63.1406C86.7841 63.3158 86.5924 63.5275 86.1483 64.2463L86.7949 64.7236C87.1211 64.6771 87.8699 64.3924 88.2152 64.0711ZM90.2032 64.5277C89.8512 64.4223 89.4428 64.14 89.4478 63.6561C88.5464 64.0404 88.2235 65.4275 88.7746 66.0575C89.3797 66.4045 90.1268 65.112 90.2032 64.5277ZM91.0897 61.8308C90.5161 61.7013 90.3244 61.0929 90.243 60.7916C89.8471 61.0406 89.1847 61.7428 89.437 62.25C89.9699 62.5314 90.6572 62.1213 91.0897 61.8308ZM89.7084 62.7779C89.0776 62.7779 88.7647 62.3587 88.9332 61.747C87.9346 62.1006 87.537 62.9414 87.6573 63.432C88.0342 63.9151 89.4246 63.3448 89.7084 62.7779ZM87.1734 61.0987C87.8864 61.6133 88.8236 61.5652 89.9849 60.3118C88.9415 60.1225 87.9321 60.3989 87.1734 61.0987ZM87.356 58.8226C87.8665 59.5788 88.5912 59.9067 89.52 59.7913C90.8025 59.607 92.4169 59.4776 93.6313 59.7174L93.7882 59.3506C93.2819 57.7145 88.7945 59.2559 87.356 58.8226ZM95.3371 62.8402C94.6706 62.8402 93.7633 62.621 93.4255 62.2093C93.4462 61.9362 94.0314 61.4772 94.2688 61.3585C95.3031 61.0663 96.4311 60.8297 97.3832 61.5203C97.7094 60.096 95.5206 59.7233 94.2539 59.7233C93.8355 60.9791 92.6685 61.7677 91.9081 62.8003C92.0791 62.8327 94.7801 63.5266 95.3371 62.8402ZM91.7678 61.7453C92.5705 61.1759 92.7988 60.9692 93.389 60.1715C93.2902 60.1574 93.1731 60.1574 93.076 60.1433C92.8728 60.4387 92.5962 60.6762 92.2733 60.8322L91.6699 60.1159C91.396 60.1358 91.1121 60.1275 90.8415 60.1723C90.868 61.1775 91.1386 61.2937 91.7678 61.7453ZM91.4433 62.7937C91.0797 62.67 91.0639 62.7264 90.9569 62.3595L90.419 62.7986C90.1965 63.0228 89.8529 63.6627 90.1334 64.1591C90.9535 64.1118 91.2308 63.4295 91.4433 62.7937Z" fill="white"/>
<path fill-rule="evenodd" clip-rule="evenodd" d="M116.713 99.3231H115.236L114.479 101.832H114.112L113.355 99.3231H111.879L112.977 102.524L111.787 105.781H113.262L114.111 103.216H114.478L115.328 105.781H116.804L115.612 102.524L116.713 99.3231ZM108.011 105.785L107.873 104.263H106.258L106.119 105.785H104.736L105.363 99.3264H108.768L109.396 105.785H108.011ZM106.58 100.711L106.378 102.878H107.752L107.55 100.711H106.58ZM102.411 103.847H99.4567V105.785H98.0738V99.3264H102.411V103.847ZM101.026 100.711H99.4567V102.463H101.026V100.711ZM95.5372 100.711H94.0605V105.785H92.6776V100.711H91.2009V99.3264H95.538V100.711H95.5372ZM88.8377 101.339H87.4532V100.711H86.1433V104.401H87.4532V103.773H88.8377V105.785H84.7604V99.3264H88.8377V101.339ZM81.8909 101.339H80.5072V100.711H79.1973V104.401H80.5072V103.773H81.8909V105.785H77.8128V99.3264H81.8909V101.339ZM75.101 105.785H70.7647V99.3264H75.101V105.785ZM73.7172 100.711H72.1484V104.401H73.7172V100.711ZM68.4978 100.711H66.2475V105.785H64.8638V99.3264H68.4978V100.711ZM61.9942 101.339H60.6105V100.711H59.2998V104.401H60.6105V103.773H61.9942V105.785H57.9161V99.3264H61.9942V101.339ZM54.9022 105.785H50.5659V99.3264H54.9022V105.785ZM53.5176 100.711H51.9496V104.401H53.5176V100.711ZM47.796 103.847H44.8434V105.785H43.4597V99.3264H47.796V103.847ZM46.4123 100.711H44.8434V102.463H46.4123V100.711Z" fill="#C6C8C9"/>
<path fill-rule="evenodd" clip-rule="evenodd" d="M80.0616 94.4814C75.595 93.4587 71.7858 92.0808 67.9011 89.6056C68.8167 88.5298 68.8955 86.956 68.8848 85.7001L68.8889 73.4035C68.8889 72.1933 68.5693 70.8967 68.1667 69.7645C70.3158 69.6466 74.6321 67.2718 75.7967 66.0549H84.329C85.4927 67.2718 89.8091 69.6475 91.9581 69.7645C91.5564 70.8967 91.2368 72.1933 91.2368 73.4035L91.2418 85.7001C91.2285 86.956 91.3098 88.5298 92.2246 89.6056C88.4104 92.0368 84.4136 93.5044 80.0616 94.4814Z" fill="#C6C8C9"/>
<path fill-rule="evenodd" clip-rule="evenodd" d="M74.9001 70.7904V89.3656H77.558V80.7653H85.0237V70.7904H74.9001ZM85.0237 85.5648V84.2541H81.1132V89.3656H85.0237V88.0392H82.4878V85.5648H85.0237ZM80.2192 83.3701H85.0237V81.6576H78.4487V89.3656H80.2192V83.3701ZM82.4347 78.0767H77.558V73.3611H82.4347V78.0767Z" fill="white"/>
</svg>
