<svg width="198" height="49" viewBox="0 0 198 49" fill="none" xmlns="http://www.w3.org/2000/svg">
<path d="M89.5945 19.1099L93.3565 16.3659H80.8825V32.6339H93.3565V29.8899H84.4465V25.7739H91.9705V23.0299H84.4465V19.1099H89.5945ZM74.0515 19.1099L77.8135 16.3659H63.5575V32.6339H70.9825C75.1405 32.6339 77.5165 30.7719 77.5165 27.5379C77.5165 24.4019 75.3385 22.7359 71.3785 22.7359H67.0225V19.1099H74.0515ZM70.8835 25.3819C73.1605 25.3819 74.1505 26.1659 74.1505 27.6359C74.1505 29.1059 73.0615 29.8899 70.8835 29.8899H67.1215V25.3819H70.8835ZM103.356 16.3659H96.6235V32.6339H100.188V28.0279H103.455C107.811 28.0279 110.484 25.7739 110.484 22.1479C110.484 18.5219 107.712 16.3659 103.356 16.3659ZM103.356 25.2839H100.188V19.0119H103.356C105.633 19.0119 106.92 20.0899 106.92 22.1479C106.821 24.2059 105.633 25.2839 103.356 25.2839ZM57.5185 29.1059C56.5285 29.5959 55.5385 29.8899 54.4495 29.8899C51.2815 29.8899 48.9055 27.6359 48.9055 24.4999C48.9055 21.3639 51.1825 19.1099 54.4495 19.1099C55.6375 19.1099 56.7265 19.5019 57.7165 20.0899L60.2905 18.2279L60.0925 18.0319C58.6075 16.7579 56.6275 16.0719 54.3505 16.0719C51.8755 16.0719 49.6975 16.8559 48.0145 18.4239C46.4305 19.9919 45.4405 22.1479 45.5395 24.4019C45.5395 26.6559 46.4305 28.8119 48.0145 30.4779C49.6975 32.0459 51.9745 32.9279 54.2515 32.8299C56.8255 32.8299 59.0035 31.9479 60.5875 30.3799L58.3105 28.7139L57.5185 29.1059ZM164.34 23.0299H156.717V16.3659H153.153V32.6339H156.717V25.9699H164.34V32.6339H167.904V16.3659H164.34V23.0299ZM140.283 16.3659L133.155 32.6339H136.719L138.105 29.3999H145.629L147.015 32.6339H150.777L143.847 16.3659H140.283ZM139.293 26.6559L142.065 20.0899L144.639 26.6559H139.293ZM180.774 24.2059L187.209 16.3659H183.15L177.804 23.3239H175.824V16.3659H172.26V32.6339H175.824V26.0679H178.101L183.546 32.6339H188.1L180.774 24.2059ZM125.73 22.7359H121.374V19.1099H130.68V16.3659H117.81V32.6339H125.235C129.393 32.6339 131.769 30.7719 131.769 27.5379C131.868 24.4019 129.69 22.7359 125.73 22.7359ZM125.136 29.9879H121.374V25.4799H125.136C127.413 25.4799 128.403 26.2639 128.403 27.7339C128.502 29.2039 127.314 29.9879 125.136 29.9879Z" fill="#C6C8C9"/>
<path d="M34.3532 16.2679C35.0462 17.0519 35.5412 18.0319 36.0362 18.9139L23.5622 28.0279L18.3152 24.7939V20.8739L23.5622 24.1079L34.3532 16.2679ZM37.0262 22.1479L34.0562 24.3039V24.5979C34.0562 27.6359 32.7692 30.3799 30.5912 32.2419L32.6702 34.5939C35.4422 32.1439 37.2242 28.5179 37.2242 24.5979C37.2242 23.7159 37.1252 22.9319 37.0262 22.1479Z" fill="#C6C8C9"/>
<path d="M30.9869 31.85C29.1059 33.712 26.4329 34.888 23.5619 34.888H23.0669L22.8689 38.024H23.5619C27.3239 38.024 30.7889 36.456 33.2639 34.006L30.9869 31.85Z" fill="#C6C8C9"/>
<path d="M23.5627 34.9859C20.4937 34.9859 17.7217 33.6139 15.7417 31.5559L13.3657 33.6139C15.8407 36.3579 19.5037 38.1219 23.5627 38.1219V34.9859Z" fill="#C6C8C9"/>
<path d="M16.1374 31.85C14.2564 29.988 13.0684 27.342 13.0684 24.5V23.912L9.90039 23.814V24.5C9.90039 28.224 11.3854 31.654 13.8604 34.104L16.1374 31.85Z" fill="#C6C8C9"/>
<path d="M13.0684 24.4999C13.0684 21.4619 14.4544 18.7179 16.5334 16.7579L14.3554 14.5039C11.5834 16.9539 9.90039 20.5799 9.90039 24.4999H13.0684Z" fill="#C6C8C9"/>
<path d="M15.9401 17.346C17.8211 15.386 20.5931 14.112 23.5631 14.112H24.0581L24.2561 10.976H23.5631C19.7021 10.976 16.2371 12.544 13.6631 15.19L15.9401 17.346Z" fill="#C6C8C9"/>
<path d="M23.563 14.112C25.741 14.112 27.82 14.798 29.503 15.974L32.176 14.014C29.8 12.152 26.83 10.976 23.563 10.976V14.112Z" fill="#C6C8C9"/>
</svg>
