<svg width="149" height="149" viewBox="0 0 149 149" fill="none" xmlns="http://www.w3.org/2000/svg">
<path fill-rule="evenodd" clip-rule="evenodd" d="M129.772 82.3808V78.0211C129.772 78.0211 133.412 78.9154 133.412 75.4346V64.1774H146.809V82.3646H141.954V68.4413H138.314V75.4354C138.314 75.4354 139.287 84.488 129.772 82.3808ZM115.302 60.1547L118.143 59.037C118.143 59.037 118.24 60.5536 120.22 60.5536C122.2 60.5536 122.344 59.037 122.344 59.037L125.219 60.1547C125.219 60.1547 124.468 63.1408 120.22 63.1408C115.972 63.1408 115.302 60.1547 115.302 60.1547ZM112.012 82.3329H116.899L123.605 71.4274V82.3329H128.315V64.1457H123.398L116.723 75.1478V64.1457H112.029L112.012 82.3329ZM76.199 82.3329V64.1457H81.0843V71.8263L86.1451 64.1457H91.9411L85.427 72.9286L92.3253 82.3329H86.1622L81.0843 74.5882V82.3329H76.199ZM61.8761 82.3329L64.4154 77.255L57.9477 64.1457H63.7282L66.9377 71.7946L69.6679 64.1457H75.0804L67.1294 82.3329H61.8761ZM39.7451 82.3483V77.9894C39.7451 77.9894 43.3859 78.883 43.3859 75.4021V64.1457H56.782V82.3321H51.9284V68.4096H48.2883V75.4029C48.2883 75.4029 49.2615 84.4563 39.7451 82.3483Z" fill="#C6C8C9"/>
<path fill-rule="evenodd" clip-rule="evenodd" d="M103.886 64.1456C100.741 60.8411 100.469 58.9086 100.469 58.9086C100.469 58.9086 100.075 61.2075 97.2331 64.1456C94.3916 67.0838 90.2715 70.5971 90.2715 74.1397C90.2715 77.6824 92.9213 83.6576 100.468 83.6576C108.015 83.6576 110.676 77.5896 110.676 74.1397C110.676 70.6891 107.032 67.451 103.886 64.1456ZM95.95 68.4891C95.8626 68.7125 95.1677 70.4533 95.0394 71.762C94.9126 73.0714 94.959 75.0511 94.959 75.3549C94.959 75.6587 94.9118 75.8504 94.5918 75.6417C94.2733 75.4345 92.9314 74.476 93.2514 72.3054C93.5699 70.134 95.0633 68.8486 95.7984 68.2101C95.7984 68.2101 95.9175 68.098 95.9886 68.1382C96.0613 68.1776 96.0373 68.2657 95.95 68.4891Z" fill="#C6C8C9"/>
<path fill-rule="evenodd" clip-rule="evenodd" d="M2.19067 57.6796V91.0661H35.9452V57.6796H2.19067ZM12.7452 63.1725C12.7452 63.1725 12.841 61.3042 14.6777 61.3042C16.5136 61.3042 16.5939 63.1725 16.5939 63.1725V76.2014C16.5939 76.2014 16.6164 77.3825 17.9189 77.3825C19.2214 77.3825 19.1487 76.2014 19.1487 76.2014V63.1725C19.1487 63.1725 19.3242 61.3042 21.1129 61.3042C22.9016 61.3042 23.0446 63.1725 23.0446 63.1725V76.2014C23.0446 76.2014 22.9812 80.9909 17.9196 81.2467C12.8418 81.1022 12.7305 76.2014 12.7305 76.2014L12.7452 63.1725ZM10.1587 86.2766C10.1587 86.2766 6.26283 86.2766 6.26283 82.4596V63.1717C6.26283 63.1717 6.26283 61.3034 8.21078 61.3034C10.1587 61.3034 10.1425 63.1717 10.1425 63.1717V81.2467C10.1425 81.2467 9.99873 82.4596 11.4837 82.4596H28.8398L24.6563 72.2405C24.6563 72.2405 23.9854 70.4688 24.6563 69.2552C25.3265 68.0416 28.1688 63.1717 28.1688 63.1717C28.1688 63.1717 28.9511 61.3034 30.4206 61.3034C31.89 61.3034 32.7357 62.8842 32.1289 63.9865C31.5221 65.088 28.7756 69.7986 28.7756 69.7986C28.7756 69.7986 28.073 70.7726 28.7756 72.0983C29.9251 74.8448 34.5878 86.2774 34.5878 86.2774H10.1587V86.2766Z" fill="#C6C8C9"/>
<path fill-rule="evenodd" clip-rule="evenodd" d="M40.3682 87.0922H43.7624V84.4021H44.4968V91.0229H43.7624V87.7863H40.3682V91.0229H39.6331V84.4021H40.3682V87.0922ZM50.0376 85.0971H47.3375V87.062H49.958V87.7569H47.3375V90.3279H50.0376V91.0229H46.6032V84.4021H50.0376V85.0971ZM54.6431 90.0898H54.4646C52.0033 90.0898 51.4275 88.581 51.4275 87.5088C51.4275 86.4367 52.0033 84.9278 54.4646 84.9278H54.6431V84.1347H55.3775V84.9278H55.556C58.018 84.9278 58.5932 86.4367 58.5932 87.5088C58.5932 88.581 58.0173 90.0898 55.556 90.0898H55.3775V91.0229H54.6431V90.0898ZM54.6431 85.6235H54.4445C52.638 85.6235 52.1811 86.6655 52.1811 87.5088C52.1811 88.3521 52.638 89.3941 54.4445 89.3941H54.6431V85.6235ZM55.3775 89.3941H55.5761C57.3826 89.3941 57.8395 88.3521 57.8395 87.5088C57.8395 86.6655 57.3826 85.6235 55.5761 85.6235H55.3775V89.3941ZM61.9696 85.0971V91.0229H61.2345V85.0971H59.6266V84.4021H63.5774V85.0971H61.9696ZM66.3571 88.0847C66.0595 88.0545 65.6027 87.9556 65.2456 87.6673C64.7686 87.2808 64.6697 86.7644 64.6697 86.3176C64.6697 85.7216 64.8583 85.2957 65.1265 84.9973C65.6421 84.4215 66.3772 84.4014 66.7738 84.4014H68.3221V91.0221H67.5878V88.1233H67.1904L65.3043 91.0221H64.4107L66.3571 88.0847ZM66.8735 85.0971C66.5264 85.0971 66.0595 85.1164 65.7418 85.4441C65.5314 85.6779 65.4178 85.983 65.4241 86.2975C65.4241 86.7435 65.5934 87.0226 65.8014 87.1903C66.0789 87.4091 66.4963 87.4686 66.814 87.4686H67.5885V85.0963H66.8735V85.0971ZM71.1621 87.0922H74.5571V84.4021H75.2915V91.0229H74.5571V87.7863H71.1621V91.0229H70.4278V84.4021H71.1621V87.0922ZM81.0503 89.1568H78.2319L77.4381 91.0229H76.6241L79.6705 84.0844L82.6388 91.0229H81.8248L81.0503 89.1568ZM80.7627 88.4611L79.6504 85.8113L78.5195 88.4611H80.7627ZM85.359 88.0847C85.0614 88.0545 84.6053 87.9556 84.2474 87.6673C83.7705 87.2808 83.6723 86.7644 83.6723 86.3176C83.6723 85.7216 83.8609 85.2957 84.1284 84.9973C84.6447 84.4215 85.3799 84.4014 85.7772 84.4014H87.3247V91.0221H86.5911V88.1233H86.1938L84.3085 91.0221H83.4149L85.359 88.0847ZM85.8753 85.0971C85.5283 85.0971 85.0614 85.1164 84.7444 85.4441C84.5335 85.6776 84.4195 85.9829 84.426 86.2975C84.426 86.7435 84.5953 87.0226 84.8032 87.1903C85.0807 87.4091 85.4989 87.4686 85.8166 87.4686H86.5911V85.0963H85.8753V85.0971ZM92.8725 87.2406L95.6932 84.4021H96.6849L93.5883 87.4895L96.7847 91.0229H95.7713L93.0619 87.985L92.8725 88.1736V91.0229H92.1389V84.4021H92.8725V87.2406ZM97.8189 87.7175C97.8189 85.7425 99.3572 84.2931 101.263 84.2931C103.168 84.2931 104.706 85.7425 104.706 87.7175C104.706 89.6832 103.178 91.1427 101.263 91.1427C99.3471 91.1427 97.8189 89.6832 97.8189 87.7175ZM98.5726 87.7175C98.5726 89.2365 99.7746 90.447 101.263 90.447C102.751 90.447 103.953 89.2365 103.953 87.7175C103.953 86.1986 102.751 84.9881 101.263 84.9881C99.7746 84.9881 98.5726 86.1986 98.5726 87.7175ZM106.227 91.0229L107.328 84.035L109.868 89.623L112.459 84.0249L113.491 91.0229H112.737L112.112 86.4173L109.859 91.3004L107.635 86.4173L106.98 91.0229H106.227ZM120.282 84.4021V91.0229H119.547V85.0971H116.154V91.0229H115.418V84.4021H120.282ZM126.041 89.1568H123.223L122.429 91.0229H121.615L124.661 84.0844L127.63 91.0229H126.816L126.041 89.1568ZM125.754 88.4611L124.642 85.8113L123.511 88.4611H125.754ZM129.696 87.0922H133.09V84.4021H133.825V91.0229H133.09V87.7863H129.696V91.0229H128.961V84.4021H129.696V87.0922ZM140.536 85.9705L135.932 91.3205V84.4021H136.665V89.4745L141.271 84.1239V91.0229H140.536V85.9705ZM144.765 88.0847C144.467 88.0545 144.011 87.9556 143.653 87.6673C143.176 87.2808 143.078 86.7644 143.078 86.3176C143.078 85.7216 143.267 85.2957 143.534 84.9973C144.05 84.4215 144.784 84.4014 145.181 84.4014H146.73V91.0221H145.995V88.1233H145.598L143.713 91.0221H142.821L144.765 88.0847ZM145.281 85.0971C144.934 85.0971 144.467 85.1164 144.15 85.4441C143.939 85.6776 143.825 85.9829 143.832 86.2975C143.832 86.7435 144.001 87.0226 144.209 87.1903C144.486 87.4091 144.903 87.4686 145.222 87.4686H145.995V85.0963H145.281V85.0971Z" fill="#C6C8C9"/>
</svg>
