<svg width="16" height="16" viewBox="0 0 16 16" fill="none" xmlns="http://www.w3.org/2000/svg">
<path d="M12.0208 11.0779L14.8762 13.9326L13.9328 14.8759L11.0782 12.0206C10.016 12.8721 8.69483 13.3352 7.3335 13.3333C4.0215 13.3333 1.3335 10.6453 1.3335 7.33325C1.3335 4.02125 4.0215 1.33325 7.3335 1.33325C10.6455 1.33325 13.3335 4.02125 13.3335 7.33325C13.3354 8.69459 12.8723 10.0157 12.0208 11.0779ZM10.6835 10.5833C11.5296 9.71318 12.0021 8.54687 12.0002 7.33325C12.0002 4.75459 9.9115 2.66659 7.3335 2.66659C4.75483 2.66659 2.66683 4.75459 2.66683 7.33325C2.66683 9.91125 4.75483 11.9999 7.3335 11.9999C8.54712 12.0018 9.71342 11.5293 10.5835 10.6833L10.6835 10.5833Z" fill="#09121F"/>
</svg>
