<svg width="20" height="20" viewBox="0 0 20 20" fill="none" xmlns="http://www.w3.org/2000/svg">
<path d="M10.0003 1.66663C14.6003 1.66663 18.3337 5.39996 18.3337 9.99996C18.3337 14.6 14.6003 18.3333 10.0003 18.3333C5.40033 18.3333 1.66699 14.6 1.66699 9.99996C1.66699 5.39996 5.40033 1.66663 10.0003 1.66663ZM10.0003 16.6666C13.6837 16.6666 16.667 13.6833 16.667 9.99996C16.667 6.31663 13.6837 3.33329 10.0003 3.33329C6.31699 3.33329 3.33366 6.31663 3.33366 9.99996C3.33366 13.6833 6.31699 16.6666 10.0003 16.6666ZM12.947 5.87496L14.1253 7.05329L10.0003 11.1783L8.82199 9.99996L12.947 5.87496Z" fill="#3350B5"/>
</svg>
