<svg width="32" height="32" viewBox="0 0 32 32" fill="none" xmlns="http://www.w3.org/2000/svg">
<path d="M19.4666 10.6667H27.9999C28.7072 10.6667 29.3854 10.9477 29.8855 11.4478C30.3856 11.9478 30.6666 12.6261 30.6666 13.3334V16.1387C30.6669 16.4872 30.599 16.8324 30.4666 17.1547L26.3399 27.1747C26.2392 27.419 26.0683 27.6279 25.8487 27.7748C25.6291 27.9218 25.3708 28.0002 25.1066 28H2.66659C2.31296 28 1.97382 27.8596 1.72378 27.6095C1.47373 27.3595 1.33325 27.0203 1.33325 26.6667V13.3334C1.33325 12.9797 1.47373 12.6406 1.72378 12.3906C1.97382 12.1405 2.31296 12 2.66659 12H7.30925C7.52271 12.0001 7.73307 11.9489 7.92263 11.8507C8.11219 11.7526 8.27542 11.6104 8.39858 11.436L15.6693 1.13337C15.7612 1.00312 15.8967 0.910115 16.0513 0.871221C16.2059 0.832328 16.3693 0.850118 16.5119 0.921368L18.9306 2.1307C19.6113 2.47092 20.155 3.03379 20.4716 3.72579C20.7881 4.41779 20.8583 5.19726 20.6706 5.9347L19.4666 10.6667ZM9.33325 14.1174V25.3334H24.2133L27.9999 16.1387V13.3334H19.4666C19.0604 13.3333 18.6597 13.2405 18.2949 13.062C17.9301 12.8835 17.6109 12.624 17.3616 12.3034C17.1124 11.9827 16.9396 11.6094 16.8566 11.2118C16.7736 10.8142 16.7825 10.403 16.8826 10.0094L18.0866 5.2787C18.1243 5.13114 18.1103 4.97512 18.047 4.83661C17.9837 4.69809 17.8748 4.58543 17.7386 4.51737L16.8573 4.07737L10.5773 12.9734C10.2439 13.4454 9.81725 13.832 9.33325 14.1174ZM6.66658 14.6667H3.99992V25.3334H6.66658V14.6667Z" fill="#09121F"/>
</svg>
